<svg xmlns="http://www.w3.org/2000/svg" viewBox="0 0 512 512"><path d="M256 16C123.5 16 16 123.4 16 256s107.5 240 240 240 240-107.4 240-240S388.5 16 256 16zm0 440.3c-110.6 0-200.3-89.7-200.3-200.3S145.4 55.7 256 55.7 456.3 145.4 456.3 256 366.6 456.3 256 456.3zm94.6-128.6c-14.5-1.9-16.1 13.3-16.1 13.3s-8.6 34.2-44.6 35.3c-31 1-41.4-15.6-41.4-15.6-28.3-40.2-8.1-109.3-8.1-109.3s8.9-32.2 48.3-32c36.4.2 45 32.7 45 32.7s2.5 13.1 13.8 10.2c10.2-2.6 9.1-17.3 9.1-17.3-.6-8.6-1.3-32.4-35.1-49.5s-60.2-2.2-60.2-2.2-5.9 3.4-10.8.6c-3.9-2.2-2.2-8.4-2.2-8.4 6.9-35.7 23.1-65.8 23.1-65.8s9.3-17.7-2.6-25.3c-15.2-9.7-29.8 10.8-29.8 10.8-26.8 29-31.2 107.5-31.2 107.5s.4 6.7-4.8 6.7-4.8-5.2-4.8-5.2c-1.5-7.1 4.1-45 4.1-45 6-33.8-8.2-33.8-8.2-33.8-30.1 0-29 72.1-29 72.1l-1.1 44.3s.2 5.2-4.5 5.2c-5.2 0-5.1-5.6-5.1-5.6-1.5-12.4 2-48.6 2-48.6 3.5-27.3-8.9-24.8-8.9-24.8-28.8-1-19.8 97.2-19.8 97.2 11.9 151.2 136.8 145.3 136.8 145.3 86.4 3.6 96.9-67.9 96.9-67.9s3.7-23.1-10.8-24.9zM287.5 244c-8.1 0-13.9 5.2-17.5 15.7-3.6 10.5-5.5 22.7-5.5 36.8 0 14.8 1.8 27.6 5.3 38.4s9.5 16.2 18 16.2c7.9 0 13.8-4.9 17.7-14.8 3.9-9.9 5.8-23.1 5.8-39.9 0-14.4-2-26.8-6-37.1-3.9-10.2-9.9-15.3-17.8-15.3z"/></svg>