<svg xmlns="http://www.w3.org/2000/svg" viewBox="0 0 512 512"><path d="M361.8 204.5l-41.3 78.6c-.9 1.7-3.4 1.7-4.3 0l-41.3-78.6c-.4-.8-1.2-1.3-2.1-1.3h-20c-1.4 0-2.2 1.4-1.6 2.6l65 121.8c.9 1.7 3.3 1.7 4.2 0l65-121.8c.6-1.2-.2-2.6-1.6-2.6h-20c-.8 0-1.6.5-2 1.3zM385.2 309.4l41.3-78.6c.9-1.7 3.4-1.7 4.3 0l41.3 78.6c.4.8 1.2 1.3 2.1 1.3h20c1.4 0 2.2-1.4 1.6-2.6l-65-121.8c-.9-1.7-3.3-1.7-4.2 0l-65 121.8c-.6 1.2.2 2.6 1.6 2.6h20c.7-.1 1.6-.6 2-1.3zM103 261.2c8.6-4.3 14-13.7 14-25.1 0-19.6-15.3-32.9-36.8-32.9H18.4c-1.4 0-2.4 1-2.4 2.4v120.9c0 1.4 1 2.4 2.4 2.4h59.2c29.6 0 45.2-12.7 45.2-37.7 0-24.4-19.8-30-19.8-30zm-63.8-39.8h36.7c13.5 0 20.4 5.8 20.4 16.5s-6.9 16.5-20.4 16.5H39.2c-1.3 0-2.4-1-2.4-2.4v-28.2c0-1.4 1-2.4 2.4-2.4zm37.2 89.2H39.2c-1.4 0-2.4-1-2.4-2.4v-33.4c0-1.3 1-2.4 2.4-2.4h37.2c17.8 0 25.7 5 25.7 19-.1 14.2-7.8 19.2-25.7 19.2zM230 261.2c8.6-4.3 14-13.7 14-25.1 0-19.6-15.3-32.9-36.8-32.9h-61.9c-1.4 0-2.4 1-2.4 2.4v120.9c0 1.4 1 2.4 2.4 2.4h59.2c29.6 0 45.2-12.7 45.2-37.7.1-24.4-19.7-30-19.7-30zm-63.8-39.8h36.7c13.5 0 20.4 5.8 20.4 16.5s-6.9 16.5-20.4 16.5h-36.7c-1.4 0-2.4-1-2.4-2.4v-28.2c0-1.4 1-2.4 2.4-2.4zm37.1 89.2h-37.2c-1.3 0-2.4-1-2.4-2.4v-33.4c0-1.3 1-2.4 2.4-2.4h37.2c17.8 0 25.7 5 25.7 19 0 14.2-7.8 19.2-25.7 19.2z"/></svg>