<svg xmlns="http://www.w3.org/2000/svg" viewBox="0 0 512 512"><path d="M297.2 245.8c-82.6 27.7.5-.2-83 28v.9c0 38.3-31.1 69.4-69.6 69.4-38.5 0-69.6-31.1-69.6-69.4 0-38.3 31.2-69.3 69.6-69.3 29.6 0 54.8 18.6 64.8 44.6 46.9-12.7 164.2-47.4 235.3-142.1-32.4-41.3-78.3-71.4-129.6-84.3-20.9-5.2-39.6-7.4-60-7.6-38.2-.3-74.7 8.8-107.3 25.1-25 12.4-46.9 28.5-66 48.2-24.1 24.9-42.6 51.8-54.7 88.8-47 143.3 67.1 192.3 117.3 192.3 15.4 0 59.7-2.9 98.2-34.7 22.4-18.5 44.6-44.4 54.7-89.9h-.1zm198.3-4.9c-62.3-12.7-110.5-8.2-121.7-7.4-30.1 158.3-207.2 251.7-148.5 260.2 10.9 1.6 23.1 2.3 29.4 2.3 29.6-.2 56.6-4.7 85.7-15.6 64.4-24.2 126.7-80.8 148.1-165.9 5-19.6 6.9-35.9 7.4-58.1.2-5.1.2-10.3-.2-15.5h-.2z"/></svg>