<svg xmlns="http://www.w3.org/2000/svg" viewBox="0 0 402 512"><path d="M333.7 180.8c-65.9-70.2-176.3-73.7-246.5-7.7-.7.7-1.4 1.3-2.1 2V16H15.6v295.1c-.3 28.3 6 56.2 18.5 81.6l38.4 6c1.2.2 2.5 0 3.6-.6 13-10 47-32.4 59.8-42.4v-.9c-3.6-1.1-26.2-15.4-65.8-38.7-8-4.8-9.3-5-1.8-11.9 4.3-4 8.8-7.7 12.9-11.8 4.2-4.3 10-6.7 16-6.7 20.9-.7 76.1 19.5 98.3 18.8 3.2-.2 6.2-1.5 8.7-3.5 16.5-9.8 50.6-29.4 68.7-38.2 15-7.3 52-27.3 67.1-6.7 4.2 5.9 14.8 20.8-27.6 51-16.6 14.3-204.4 122.3-236 140.8 73.1 66.2 185.1 63.8 255.3-5.5 35.5-34.2 55.3-81.5 54.7-130.7.5-48.9-18.4-96-52.7-130.9z"/></svg>