<svg xmlns="http://www.w3.org/2000/svg" viewBox="0 0 264 512"><path d="M132.2 496c-12.9-90.4-27.7-181.5-37.4-272.1 14.3-7.1 18.5-22.6 22.8-37.1 2.8-15.7 6.9-33 5.8-49.1-27.4.7-57.4 3.5-82.3 15.5-30.7 0-32.7-43.4-.7-46.1 27.4 10.6 54.9 14.5 84.2 15.5-1.4-28.8-4.4-56-15.2-82.8 0-7.8 1.8-12.2 6.9-18 18.5-12 36-4.1 39 17.5-11.4 27.5-13 52.7-15.3 82.2.5.2.9.5 1.6.9 28.1-1.4 56.5-3.9 82.6-15.5 31.4-1.5 29.8 41.6-.9 46.1-24.9-12.5-55.6-14.3-83-15 1.8 17.1 3.7 79.6 30 86-1.4 13.8-2.3 14.8-29.1 214.5-1 1-8.1 55.9-9 57.5z"/></svg>