<svg xmlns="http://www.w3.org/2000/svg" viewBox="0 0 512 512"><path d="M255.9 186.2c-82.3 0-150.5 63.8-155.1 145 0 2.1.5 3.9 2.1 5.5 1.3 1.6 3.4 2.3 5.5 2.3h54.9c3.9 0 7-2.9 7.5-7 4.2-43.7 40.9-76.8 85.4-76.8s81.2 33.1 85.4 76.8c.3 3.9 3.6 7 7.5 7h54.7c2.1 0 4.2-.8 5.5-2.3s2.1-3.4 2.1-5.5c-5.1-81.4-73.3-145-155.5-145zm.1 84.1c38.9 0 70.5 31.3 70.5 69.8s-31.6 69.8-70.5 69.8-70.5-31.3-70.5-69.8 31.6-69.8 70.5-69.8zm166.9-101.5c-45-42.7-104.4-66.6-166.9-66.6s-121.8 23.7-166.9 66.6C44.4 211.7 18.3 269.3 16 331c0 2.1.8 3.9 2.1 5.5 1.6 1.6 3.4 2.3 5.5 2.3H78c3.9 0 7.3-3.1 7.5-7 4.4-90.3 79.1-160.9 170.5-160.9 91.1 0 166.1 70.5 170.5 160.9.3 3.9 3.4 7 7.5 7h54.4c2.1 0 3.9-.8 5.5-2.3s2.1-3.4 2.1-5.5c-2.3-61.7-28.4-119.3-73.1-162.2z"/></svg>