<svg xmlns="http://www.w3.org/2000/svg" viewBox="0 0 512 512"><path d="M256 89.9c-132.5 0-240 70.5-240 157v9.2c0 91.7 93.9 166 240 166 147 0 240-74.3 240-166v-9.2c0-86.5-107.4-157-240-157zm229.2 139.6c-52.2 11.6-91.1 28.4-100.9 32.8-22.8-19.9-75.4-65.6-89.6-76.3-8.1-6.1-13.7-9.4-18.6-10.8-2.2-.7-5.2-1.4-9.1-1.4-3.6 0-7.5.7-11.6 1.9-9.2 2.9-18.4 10.2-27.3 17.3l-.5.4c-8.3 6.6-16.8 13.4-23.3 14.8-2.8.6-5.7 1-8.6 1-7.2 0-13.7-2.1-16.2-5.2-.4-.5-.1-1.3.8-2.5l.1-.2 20-21.6c15.7-15.7 30.5-30.5 64.6-31.3h1.7c21.2 0 42.4 9.5 44.8 10.6 19.9 9.7 40.5 14.6 61.1 14.7 21.5 0 43.7-5.3 67-16 24.6 20.3 40.7 44.9 45.6 71.8zm-409-75.2c29.3 12 64.8 21.2 76 22 3.1.2 6.5.6 9.8.6 7.4 0 14.9-2.1 22.1-4.1 4.2-1.2 8.9-2.5 13.9-3.4l-3.9 3.9-20.4 22c-1.6 1.6-5.1 5.9-2.8 11.2.9 2.1 2.8 4.2 5.3 5.9 4.9 3.3 13.5 5.5 21.6 5.5 3.1 0 6-.3 8.6-.9 8.5-1.9 17.5-9 27-16.6 7.6-6 18.3-13.6 26.5-15.9 2.3-.6 5.1-1 7.4-1 .7 0 1.3 0 1.9.1 5.4.7 10.7 2.5 20 9.6 16.7 12.5 90.6 77.2 91.3 77.8.1 0 4.8 4.1 4.4 10.9-.2 3.8-2.3 7.1-5.9 9.4-3.2 2-6.4 3-9.7 3-4.9 0-8.3-2.3-8.6-2.5-.3-.2-25.6-23.4-34.9-31.2-1.5-1.2-2.9-2.3-4.4-2.3-.8 0-1.5.3-1.9.9-1.5 1.8.2 4.3 2.1 6l29.6 29.7s3.7 3.5 4.1 8c.2 4.9-2.1 9-7 12.3-3.5 2.3-7 3.5-10.5 3.5-4.5 0-7.7-2.1-8.4-2.6l-4.2-4.2c-7.8-7.6-15.8-15.5-21.6-20.4-1.4-1.2-3-2.3-4.4-2.3-.7 0-1.4.3-1.9.8-.7.7-1.1 2.1.5 4.3.7.9 1.5 1.7 1.5 1.7l21.6 24.2c.2.2 4.5 5.3.5 10.3l-.8 1c-.6.7-1.3 1.4-2 1.9-3.7 3-8.6 3.4-10.5 3.4-1 0-2.1-.1-2.9-.2-2.1-.4-3.6-1-4.2-1.8l-.3-.3c-1.2-1.2-12.1-12.3-21.1-19.8-1.2-1-2.7-2.3-4.2-2.3-.8 0-1.4.3-1.9.9-1.8 2 .9 4.9 2 5.9l18.4 20.3c0 .2-.3.6-.7 1.3-.7.9-2.9 3.1-9.6 4-.8.1-1.6.1-2.4.1-6.9 0-14.2-3.3-18-5.4 1.7-3.6 2.6-7.6 2.6-11.7 0-15.2-12.3-27.5-27.5-27.5h-1c.5-6.9-.5-20-13.9-25.8-3.9-1.7-7.7-2.5-11.5-2.5-2.9 0-5.8.5-8.4 1.5-2.8-5.4-7.4-9.4-13.4-11.4-3.3-1.2-6.7-1.7-9.9-1.7-5.6 0-10.8 1.6-15.4 4.9-4.4-5.5-11.1-8.7-18.1-8.7-6.1 0-12 2.5-16.4 6.8-5.7-4.4-28.5-18.8-89.3-32.6-2.9-.7-9.6-2.6-13.7-3.8 5.8-27.3 23.2-52.2 48.9-72.7zm112.9 158.4l-.7-.6h-.7c-.5 0-1.1.2-1.9.8-3.1 2.2-6.1 3.2-9.1 3.2-1.7 0-3.4-.3-5.1-1-14.1-5.5-13-18.8-12.3-22.8.1-.8-.1-1.4-.6-1.9l-1-.8-.9.9c-2.7 2.7-6.3 4.1-10.1 4.1-8.1 0-14.7-6.6-14.6-14.6 0-8.1 6.6-14.6 14.7-14.6 7.3 0 13.5 5.5 14.4 12.8l.5 3.9 2.2-3.3c.2-.4 6.2-9.3 17-9.3 2.1 0 4.2.3 6.4 1 8.7 2.6 10.1 10.5 10.4 13.8.2 1.9 1.5 2 1.8 2 .7 0 1.3-.5 1.7-.9 1.6-1.7 5.2-4.5 10.8-4.5 2.5 0 5.3.6 8.1 1.8 13.8 5.9 7.5 23.4 7.5 23.6-1.2 2.9-1.2 4.2-.1 4.9l.5.3h.4c.6 0 1.4-.3 2.7-.7 1.9-.6 4.7-1.6 7.4-1.6 10.4.1 18.8 8.6 18.8 18.8 0 10.4-8.5 18.8-18.8 18.8-10.1 0-18.4-7.9-18.8-17.9 0-.9-.1-3.2-2.1-3.2-.8 0-1.5.5-2.3 1.2-2.2 2.1-5.1 4.2-9.2 4.2-1.9 0-3.9-.4-6.1-1.3-10.7-4.3-10.9-11.7-10.4-14.7 0-.9 0-1.7-.5-2.4z"/></svg>