<svg xmlns="http://www.w3.org/2000/svg" viewBox="0 0 512 512"><path d="M74.8 193.2c0-33.2-3.4-39-12-39-7.7 0-14.5 3.4-21.7 3.4-16.4 0-25.1-17.8-25.1-32.2 0-20.7 12-36.6 33.7-36.6 14.9 0 29.9 4.8 45.3 4.8 11.6 0 26.5-4.8 41.4-4.8 18.3 0 21.7 7.2 21.7 34.7v195.9c0 29.4 2.4 39 12 39 7.7 0 14.5-3.4 21.7-3.4 16.4 0 25.1 17.8 25.1 32.2 0 20.7-12 36.6-33.7 36.6-24.6 0-42.9-4.8-66-4.8-24.6 0-48.7 4.8-73.3 4.8-15.9 0-28-15.9-28-36.6 0-14.4 8.7-32.2 25.1-32.2 7.2 0 14 3.4 21.7 3.4 9.6 0 12-9.6 12-39V193.2h.1zM390 178.7c0-21.7-23.1-31.8-41.4-31.8-13 0-25.1 1.9-35.7 9.6 6.3 7.7 9.6 14.9 9.6 25 0 27.9-23.1 45.2-49.2 45.2-29.4 0-49.2-24.6-49.2-52.5 0-68.3 72.8-92.4 129.6-92.4 63.6 0 125.8 28.4 125.8 100.6 0 68.8-65.1 93.4-120.5 110.7-26.5 8.7-69.9 18.8-72.3 51.5l1 1c10.1-16.8 27.9-26.9 48.2-26.9 20.2 0 35.7 10.1 49.6 20.2 13.5 10.1 25.1 20.2 37.6 20.2 5.8 0 10.6-3.8 14.9-7.7-17.4-1.9-29.9-14.9-29.9-32.7 0-20.7 17.8-36.6 38.1-36.6 32.8 0 49.6 31.3 49.6 61.1 0 42.4-32.3 86.6-77.1 86.6-25.1 0-45.3-12.5-60.7-25-15.4-12.5-27.5-24.5-36.6-24.5-4.3 0-5.8 1.4-5.3 14.4 0 22.1-20.2 35.1-41.4 35.1-40 0-60.7-38-60.7-74.1 0-65 54.9-99.6 109.4-122.3 24.6-9.9 66.6-22.9 66.6-54.7"/></svg>