<svg xmlns="http://www.w3.org/2000/svg" viewBox="0 0 438 512"><path d="M252.9 212.4h17.9c28.1 0 50.8-22.9 50.8-51 0-28-22.7-50.8-50.8-50.8h-18.5c-5.1 0-11.3 4.4-11.3 11.3v79.5c.1 5.1 4.8 11 11.9 11zm168.7-8.9c-.5-.2-1.3-.3-2 1.3-45.2 109.7-170.4 92.4-170.4 92.4-5.1-.3-8.8 1.8-9.1 6.6v82.5c.1 5.3-3.3 6.4-6.6 6.9-80.4 2.8-101-50.9-101.4-87.9-.1-10.1-.5-17.4-.5-18.6V73c0-5 3.8-6.8 7.1-6.8h43.1c12.4.1 15.5-1.2 22.6-7.8l35-38c3.9-4.8-2.4-4.4-2.4-4.4H46.5c-25.7 0-31.1 18.1-31.1 28.8V304c.3 27.4-1.2 192 188.3 192h180.2c29 0 38.8-19.4 38.8-35.8V205.6c-.1 0 0-1.8-1.1-2.1z"/></svg>