<svg xmlns="http://www.w3.org/2000/svg" viewBox="0 0 300 512"><path d="M147.6 408.9c19.1 2.4 47.7 6.3 68.3-18.7-3.2 46.4-30.7 78.4-73.2 77.2-42.6-1.3-68.6-.1-86.4 23.4l-3.8 5.2c3.7-43.8 16.5-71.4 51.9-82.1-31.5-6-112-58.6-82.5-217.9C40.8 93.7 94.5 36 140 18.7c-15.1 16-23.1 27.2-38.6 57.3-48 92.9-42.8 261.6 32.6 248.9 75.5-12.7 110-134.2 99.9-219.7-10.1-86.7-65.2-53.3-76.8-12.3 15.7-19.4 58.4-4 47.5 80.9-14.9 115.4-110.8 129.3-102 8.4 9-108.2 56.1-154.3 91-164.7C230.5 6.8 311 54.1 275.8 235.6c-19.2 81.1-52.9 150.8-128.2 173.3zm1.5-271.7c.6 11.8 6.9 18.8 14.4 15.7 7.3-3.1 13-15.3 12.5-27-.5-11.9-6.9-19-14.4-15.9-7.5 3.3-13.1 15.3-12.5 27.2z"/></svg>