<svg xmlns="http://www.w3.org/2000/svg" viewBox="0 0 512 512"><path d="M361.2 237.9c-1.1-16.4-5.5-32.9-14.3-47.1L272.4 60.3c-5.5-9.9-9.9-20.8-12.1-31.8L257 34c-18.6 31.8-18.6 72.4 0 104.2l60.3 104.2c18.6 31.8 18.6 72.4 0 104.2l-3.3 5.5c-2.2-11-6.6-21.9-12.1-31.8l-54.8-95.4-35.1-61.4c-5.5-9.9-9.9-20.8-12.1-31.8l-3.3 5.5c-18.6 31.8-18.6 71.3 0 104.2l60.3 104.2c18.6 31.8 18.6 72.4 0 104.2l-3.3 5.5c-2.2-11-6.6-21.9-12.1-31.8L165.8 293c-9.9-17.5-14.3-37.3-14.3-57-80 20.8-136 65.8-136 117.3 0 72.4 107.4 130.5 240.1 130.5S496.1 425.4 496.1 353c1.1-49.3-53.7-94.3-134.9-115.1z"/></svg>