<svg xmlns="http://www.w3.org/2000/svg" viewBox="0 0 444 512"><path d="M19.7 206.7h95.7v12.6H19.7v-12.6zm95.8 25.1H19.8v12.6h95.7v-12.6zM19.9 257v12.6h95.7V257H19.9zm95.7 25.2H19.9v12.6h95.7v-12.6zm-.1 25.1H19.8v12.6h95.7v-12.6zm0 25.2H19.8V345h95.7v-12.5zm0 25.1H19.8v12.6h95.7v-12.6zm0 25.2H19.8v12.6h95.7v-12.6zm-95.8 37.7h404.6V408H19.7v12.5zm0 25.2h404.6v-12.6H19.7v12.6zm0 25.1h404.6v-12.6H19.7v12.6zm0 25.2h404.6v-12.6H19.7V496zm309-276.8h95.7v-12.6h-95.7v12.6zm.1 25.2h95.7v-12.6h-95.7v12.6zm95.7 12.6h-95.7v12.6h95.7V257zm-95.7 25.1v12.6h95.7v-12.6h-95.7zm0 37.8h95.7v-12.6h-95.7v12.6zm95.7 12.6h-95.7V345h95.7v-12.5zm0 25.1h-95.7v12.6h95.7v-12.6zm0 25.2h-95.7v12.6h95.7v-12.6zM115.2 194.4l.6-89.6 43.8-.3.3 177.8-31.9-.3.3 88.2H316l-.3-88.2h-39.1V104.8l51.9.3-.3 89 96 .3.1-178L19.5 16l.4 178.1 95.3.3z"/></svg>