<svg xmlns="http://www.w3.org/2000/svg" viewBox="0 0 512 512"><path d="M323.9 147.3c-96.6 0-109.2 185.4-182.1 184.8-3.9 0-8.3-1.1-11.6-1.7-4.4-1.1-5.5 2.8-2.8 6.1 9.9 11.6 28.7 28.1 60.7 28.1 94.3 0 109.8-184.8 182.6-184.8 3.9 0 6.6.6 9.9 1.1 3.9 1.1 6.6-2.2 3.9-5.5-9.9-11.5-28.6-28.1-60.6-28.1zM171 379c-73.9-8.3-78.3-82.8-78.3-128.6 0-19.3-13.2-38.1-38.6-38.1-24.3 0-38.1 20.4-38.1 38.1 0 86.6 67.9 136.3 130.8 136.3 12.1 0 17.7-1.1 24.8-2.2 3.3-.5 3.3-4.9-.6-5.5zm194.2-253.8c-12.1 0-17.7 1.1-24.8 2.2-3.3.6-3.3 5 .6 5.5 73.9 8.3 78.3 82.8 78.3 128.6 0 19.3 13.8 38.1 38.6 38.1 24.3 0 38.1-20.4 38.1-38.1 0-86.6-67.9-136.3-130.8-136.3z"/></svg>