<svg xmlns="http://www.w3.org/2000/svg" viewBox="0 0 440 512"><path d="M330.1 127.7c-6.6-.8-11.4-2.2-34.1-10-8.4-2.9-20.1-5.9-27.2-7-11.9-1.9-12.9-1.9-20.4.1-3 .8-5.5 2.1-6.8 2.8-.2.1-.3.2-.4.2-.4-1.1-1.5-4.5-2.6-8.2-5.1-16.2-10.8-23.4-18.5-23.4-5.7 0-14 6.9-17.1 14.1-1.4 3.3-1.9 5.2 4.1 8.6.9.5 1.7.9 2.4 1.2 3.2 1.5 4.5 2.2 3.5 9.6-.1 1.1-.2 1.9-.3 2.6-.1.9-.2 1.8-.3 1.9h-.4c-.3-.1-1.5-.5-3.9-2.8-3.6-3.3-24.1-8.5-29.9-8.5-8.7 0-24.1 5-43.3 13.9-12.8 6-24.9 10.6-28.1 10.6-2.2 0-4.7 1.4-5.9 3.5-.8 1.4-.9 2.7-.3 3.8 2.7 5.1 21.2 9.2 31.9 7.2 3.6-.7 10.8-1.3 16.5-1.4 8.2-.1 10.4.3 13.6 2.2 4.6 2.8 16.4 20.9 16 24.4-.2 1.9-5 5.4-9.6 8.6-11.5 7.7-16.6 13.1-17.1 17.9-.3 2.4.6 4.6 2.7 6.8 3.2 3.5 8 3.6 15.6.3 3.7-1.6 7-2.3 11.7-2.2 8.1.2 10.6 1.2 16.6 6.7 2.6 2.4 6.2 5.2 8.2 6.3 2.2 1.1 3.4 1.7 4.5 1.7.9 0 1.8-.4 3.2-1.1 2.1-1.1 2.5-2.8 2.5-10.2 0-9.5 1.5-16.6 4-18.5.8-.6 4.2-1.3 8.5-1.3 6.3 0 7.6-.4 11.3-3.6 2.2-1.9 5.2-5.9 6.8-8.9 1.7-3.3 3.8-5.5 4.9-5.8 1.6-.5 6-4.1 9.4-7.3 9.6-9.1 10.3-9.4 23.6-8.8 22.9.9 25.5.6 35.4-4.5 9.4-4.7 19.8-12.5 19.8-16.1-.1-3.2-2.8-4.6-10.5-5.4zm-5.2 8.4c-.8.7-4 2.6-9 5.1-8.3 4.3-11.5 4.5-30.9 2.8-13.7-1.2-18.3.3-27 9-3.9 4-7.5 7.2-8 7.3-.3 0-.5-2.3-.7-4.8-.2-2.4-.4-5.6-1-10-.4-2.9-1.4-8-2.3-11.2-1.9-6.9-2-11.9-.1-13.5 1.5-1.2 5.3-2 10.7-2.1 9.4-.1 21.1 1.8 29.8 4.9 9.5 3.3 19.3 6.3 26.5 8.5 5.8 1.9 10.9 3.5 12 4zm-109-35.5c-1.3-.8-2.3-1.3-3.2-1.7-1.4-.6-1.7-.8-1.6-1.2.2-1.2 2.1-3.9 5.6-6 .7-.4 1.3-.6 1.6-.5h.1c.2 0 .5 0 .7.1h.7c.7 0 2.2.1 2.5.3 2.8 1.7 6.9 12.2 11.5 29.7 6.1 23.5 6.3 24.5 6.3 35.6 0 16.3-4.1 22.3-15.1 22.3-11.5 0-15.9 5-16.9 19-.2 2.2-.2 4-.3 5.4-.1 2-.1 3.4-.3 4-.6 0-2.5-2.1-3.4-3.2-.4-.4-.7-.9-1.1-1.2-5.1-5.4-13.2-8.4-21.4-8.4-4 0-8 .7-11.8 2.1-1 .4-1.9.7-2.7 1-2.4.9-4.7 1.8-5.6 1.9.9-1.3 4.5-4.9 9.3-8.2 37.9-25.8 51.3-44.3 51.3-70.7v-1c-.1-9.9-.1-15.4-6.2-19.3zm-48.1 40.9c-3.9-2.6-4.5-3-17.1-3h-8.1c-8.7.1-16.1 0-19-.2 4.9-2.7 26.3-12.5 33.8-15.3 6.9-2.4 13.6-3.8 19.9-4 8.4-.3 16.3 1.4 23.6 5 7 3.3 10.5 7.8 9.6 12.4-1.2 6.2-6.9 15.8-13.4 22.5-3.9 4.1-7.4 6.8-8 6.8-2 0-4.9-3.4-11.2-13-3.5-5-7.5-9.6-10.1-11.2zm53.7-46.7c.5.7.4 1.8-.2 2.8-.6.8-1.4 1.3-2.2 1.3h-.1c-.8 0-1.5-.4-1.9-1.2-.5-.8 0-2.1 1.1-3 .6-.5 1.1-.7 1.6-.7.8-.1 1.3.2 1.7.8zM361.8 86C324 40.5 273.6 15.5 220 15.5 109.4 15.5 19.5 123.4 19.5 256S109.4 496.5 220 496.5c53.6 0 103.9-25 141.8-70.5 37.9-45.4 58.7-105.8 58.7-170s-20.8-124.6-58.7-170zM76 272.9L64.6 279l-11.3-6.1H76zm106.5 198.8c-1.6-.4-3.2-.8-4.7-1.3l-5.1-1.5c-.8-.2-1.6-.5-2.3-.8-.8-.3-1.6-.6-2.4-.8-.1 0-.3-.1-.4-.1-.1-.1-.3-.1-.4-.2-1.5-.5-3-1.1-4.5-1.7-.8-.4-1.6-.7-2.5-1-.8-.3-1.6-.6-2.4-1l-3.3-1.5c-.3-.2-.6-.3-.9-.4-.3-.1-.5-.2-.9-.4-.5-.2-.8-.4-1.4-.7-.5-.2-1.1-.5-1.6-.8-.6-.3-1.1-.6-1.6-.8-1.6-.8-3.2-1.6-4.7-2.5-.8-.5-1.5-.9-2.3-1.3-.3-.2-.7-.4-1-.6h.3c.3 0 .6 0 .9-.1h.2c6 0 43.9 4.4 71 8.5 10.9 1.6 19.5 2.7 27.1 3.6 8.6 1 16.1 2 24.6 3.4-.3.1-.7.2-1 .3-.6.2-1.2.4-1.8.5-1.5.4-3 .8-4.5 1.1-1.5.4-3 .7-4.5 1-.8.2-1.5.3-2.2.5-.7.1-1.4.3-2.2.4-1.7.3-3.4.6-5.2.9l-4.2.6c-.6.1-1.3.2-1.9.2-.7.1-1.3.2-1.9.2-.2 0-.6 0-.8.1-.3 0-.7.1-1 .1-.4 0-.8.1-1.1.1-.4 0-.8.1-1.2.1-.4 0-.9.1-1.2.1h-.5c-.6 0-1.3.1-1.9.1-.7 0-1.3 0-1.9.1h-5c-1.8 0-3.7 0-5.5-.1h-.8c-1.5-.1-3.1-.2-4.5-.3h-.2l-4.2-.3c-.6 0-1.2-.1-1.8-.2-.6-.1-1.2-.2-1.8-.2-.5-.1-1-.1-1.5-.2-.9-.1-1.8-.2-2.8-.4h-.2c-.4-.1-.8-.2-1.2-.2-.5-.1-1-.2-1.5-.2-.5-.1-1.1-.2-1.6-.3-1.5-.3-3-.6-4.7-.9h-.1l-.1-.1h-.2c-1.6-.3-3.2-.7-4.8-1.1l-.2.1zm-53.3-55.5c25.2-.2 52.4 4.3 76.3 8.3 5.6.9 10.8 1.8 15.8 2.6 35 5.4 79.8 6.2 112 2-.8.7-1.6 1.5-2.4 2.1-1.2 1.1-2.3 2.1-3.5 3.1l-3.5 2.9s-.1 0-.1.1l-3.4 2.7c-.1 0-.2.1-.2.2-.1 0-.1.1-.1.2-1.1.9-2.3 1.7-3.5 2.7-.6.4-1.2.9-1.8 1.3-.6.5-1.3.9-1.9 1.4-1 .7-2.1 1.5-3.4 2.3l-.1.1-.1.1c-.1.1-.2.1-.2.1-.3.2-.6.4-.8.5l-.9.6c-.5.4-1 .7-1.5 1l-.6.4c-13.3 2.2-27.9.8-40.8-.4-2.1-.2-4.2-.4-6.2-.6-12.7-1.1-23.8-2.7-39.3-5.1-3.2-.5-6.7-1-10.4-1.5-17.5-2.6-49.3-6.6-80.1-6.6-4.3 0-8.7.1-12.9.3-.6-.5-1.2-1-1.8-1.6-.9-.8-1.9-1.6-2.8-2.4l-.1-.1c-.8-.7-1.5-1.4-2.3-2.1-.7-.7-1.5-1.3-2.3-2.1-.2-.1-.3-.3-.5-.5l-.5-.5-3-3c-.4-.4-.8-.8-1.2-1.3-1-1-1.9-2-2.9-3.1l-.3-.3c-.1-.1-.2-.2-.2-.3 9.2-2.2 19.9-3.4 31.5-3.5zm132.7-3.1c-11.8-1-34.5-3.7-40.1-5.1-6.1-1.5-48.6-6.9-69.3-8.3-6.2-.4-12.5-.7-19-.7-16.5 0-33.6 1.4-49.7 4.1-.2-.3-.5-.7-.7-1-.5-.7-1.1-1.4-1.6-2.3l-.1-.1c-.3-.5-.6-.9-1-1.4-.3-.5-.6-.9-1-1.4-.3-.4-.6-.9-.9-1.3l-2.7-3.9c-.7-1-1.4-2.1-2.1-3.4l1.5-.3c1.8-.4 4.2-.8 7.2-1.4 10.9-2.1 30.3-3.4 50.6-3.4 23.9 0 48 1.6 67.8 4.5 42.7 6.1 65.7 8.9 93 8 24.5-.8 49.9-5.5 74.5-10.1-.1.2-.2.3-.3.5-.3.5-.6.9-.9 1.4-.1.1-.2.2-.3.4l-2.1 3.3-.3.5c-.3.5-.6 1-1 1.4-.5.7-.9 1.3-1.4 2-1.1 1.6-2.2 3.2-3.2 4.6-.1.1-.1.2-.2.3 0 0-.1.1-.1.2-1.2 1.7-2.4 3.3-3.6 4.7-12.7 2.5-30.1 5.2-42.4 6.8-12.2 1.9-38.8 2.4-50.6 1.4zM75.8 268.5H67v-5.7l8.8 5.7zm-13.2-5.9v5.9h-9.1l9.1-5.9zm11.9-20.2l-9.1 5.5h-1.7l-9-5.5h19.8zm-7.7-4.3v-5.5l7.5 5.5h-7.5zm-3.2-6.3v6.3H55l8.6-6.3zm290.2 127.5v-71l14.6 56.4c-3.7 7.2-8.2 11.7-14.6 14.6zm-6.6-92.3v15l-21.1 81.3c-3.6-.6-7.1-1.9-10.6-4l-4-15.6 35.7-76.7zm-37 79.9l2.8 10.9c-2-1.4-3.9-3-5.7-4.7l2.9-6.2zm-.8-3.3l-3.6 7.9c-2.2-2.3-4.5-5-6.7-8l-.1-40.4 10.4 40.5zM298.9 280v-4.3h7.9l-7.9 4.3zm-3.5-15.8l11.1 7.2h-22.2l11.1-7.2zm-9.6-34.8l8.6-6.3v6.3h-8.6zm11.8 0v-5.5l7.5 5.5h-7.5zm7.7 4.3l-9 5.5h-1.7l-9.1-5.5h19.8zm-21.3 42h8.2v4.5l-8.2-4.5zm-140.6 64c-2.2 2.5-5 4.8-8.3 6.6v-24.5l8.3 17.9zm-8.4-22.8l.1-28.9 17.3 37.4h-3.7v.9c0 4.1-1.3 8.1-3.9 11.6l-9.8-21zm22.5 8.5l17.6-37.2v37.2h-17.6zm134.8-24.6v40.9h-10.4l10.4-40.9zm0-10.6v2l-12.6 49.6h-34.4l47-51.6zm-183.8-60.7v-6l9.3 6h-9.3zm9.5 4.3l-11.3 6.1h-.1l-11.3-6.1H118zm-12.8-10.6v6.3h-9.7l9.7-6.3zm20.7 73.8l4.8-10.5v21l-4.8-10.5zm4.9 15.5v36c-.9.4-1.9.8-2.8 1.1l-9.4-36.5 6.2-13.6 6 13zM110.1 281v-13l13.3 28.8-5.9 12.9-7.4-28.7zm0 44.8v-36.3l6 23.3-6 13zm0 5.1l6.9-14.8 8.8 34.1c-3.9 1.1-8.2 1.6-12.8 1.6-.6 0-1.2 0-1.8-.1h-1.1v-20.8zm-33.2-5.5l26.6-57.3v13.1L87.2 344c-6.3-4.7-9.9-11.1-9.9-17.7v-.9h-.4zm26.6-35.9v61.4c-5.3-1.1-10.3-3-14.4-5.6l14.4-55.8zm243.7 1v71.2c-3.8 1-8.2 1.7-13.4 2.1-1.7.2-3.4.1-5.5 0l18.9-73.3zm14.5-39.9l-11.3 6.1-11.3-6.1h22.6zM348.9 240v6.3h-9.7l9.7-6.3zm12.5 6.3h-9.3v-6.1l9.3 6.1zm8.4 95.4l-16-61.8v-13l34.6 74.7h-18.6zm-16-79.8v-3.4l15.4-8.3 2.5-1.3-19.5-12.5V210c1.7-1.1 4.5-.7 7.7-.3 4.8.6 10.2 1.3 14.1-2.6l.7-.7-.9-.2c-5-.9-8-2.2-10.7-3.4-3.3-1.4-6-2.6-10.8-2.3v-2.2c0-.9-.7-1.6-1.6-1.6-.9 0-1.6.9-1.6 1.6V236l-20 12.7 18.2 9.8v3.3l-36.5 78.6-11.8-46v-11l15.4-8.3 2.3-1.3-18.9-12.2v-19.7l14.4-8.9 2-1.3-16.6-12.2v-35.6c1.6-1.9 4.8-1.5 8.5-1 4.8.6 10.2 1.3 14-2.6l.7-.7-.9-.2c-5-.9-8-2.2-10.7-3.4-3.4-1.5-6.2-2.7-11.5-2.2v-3.2c0-.5-.2-.9-.6-1.2-.3-.3-.8-.4-1.1-.4h-.2c-.7.1-1.3.8-1.3 1.6v48L276.7 232l16.7 10.3v19.3L274.1 274l18.2 9.8v3.2l-49.8 54.7h-5.3c-3.4.3-5.3 1.1-5.7 2.4-.6 1.8 1.3 3.8 3.4 5.9.7.7 1.4 1.5 2 2.1 7 11.6 14.4 19.2 23.2 23.7-17-1.3-35.5-3.3-53.4-5.2-12.3-1.3-25-2.7-36.9-3.8l1-3.7c13.1-3.3 23.5-12 32.7-27.3.6-.7 1.3-1.5 2-2.2 2.1-2.2 4-4.2 3.4-5.9-.5-1.3-2.3-2.1-5.8-2.4h-5.4v-22.4c1.6-1.9 4.8-1.5 8.5-1 4.8.6 10.2 1.3 14-2.6l.7-.7-.9-.2c-5-.9-8-2.2-10.7-3.4-3.4-1.5-6.2-2.7-11.5-2.2V291c0-.9-.7-1.6-1.6-1.6h-.3c-.7.1-1.3.8-1.3 1.6v34.4h-14.8v-46.3l12.2-25.6c2.1-.5 4.6 1.3 7.4 3.3 3.9 2.8 8.4 5.9 13.6 4.3l.9-.3-.7-.6c-4-3.1-6-5.7-7.8-8-2.4-3-4.2-5.3-9.2-7.4l1.7-3.7-1.9-.9-16.1 33.9v-27c0-.6-.3-1.2-.7-1.6-.5-.4-1.1-.6-1.7-.6-1.1.1-1.9 1.1-1.9 2.2v36.2l-19.9 42.1h-.4l-19.7-42.5v-40c0-.6-.3-1.2-.8-1.6-.5-.4-1-.6-1.6-.6-1.1.1-1.9 1.1-1.9 2.2v38.5l-6 13-15.1-31.4v-21.3l15.4-8.3 2.3-1.3-19.5-12.5v-35.9c1.6-1.6 4.7-1.2 8.3-.7 4.8.6 10.2 1.4 14-2.5l.7-.7-.9-.2c-5-.9-8.1-2.2-10.7-3.4-3.4-1.5-6.1-2.7-11.3-2.2v-1c0-.5-.2-.9-.6-1.2-.3-.3-.8-.4-1.1-.4h-.2c-.7.1-1.3.8-1.3 1.6v46.5l-19.9 12.8 2.4 1.2 15.7 8.5v21l-28.9 62.3-4.3-17.3h9.4c.9 0 1.6-.7 1.6-1.6 0-.9-.7-1.6-1.6-1.6H69.6l-1.5-6.1v-18l15.4-8.3 2.5-1.3-19-12.2v-8.2l14.4-8.9 2-1.3-16.6-12.2V213c1.4-2.6 4.8-2.1 8.9-1.6 4.8.6 10.2 1.3 14-2.6l.7-.7-.9-.2c-5.1-.9-8.1-2.2-10.8-3.4-3.5-1.5-6.3-2.8-11.8-2.2v-1c0-.9-.7-1.6-1.6-1.6-.9 0-1.6.9-1.6 1.6v26.3L48 239.3l-1.9 1.4L62.8 251v7.8l-19.3 12.4 18.2 9.8v17.7l-1.5 6.1H49.7c-.4 0-.8.2-1.1.5-.3.4-.4.8-.4 1.2 0 .4.2.8.5 1.1.4.3.8.4 1.2.4h9.4L55 325.3h-9c-6.2-22.6-9.4-45.9-9.4-69.4 0-50.6 14.6-99.8 41.1-139v.4l5-7.4c1.1-1.5 2.3-3 3.4-4.5l6.2.8c10.8 1.5 31.5.8 44.4-1.4 8.2-1.4 18-2.1 31.7-2.2l20.1-.2v-1.2c0-1.7.2-3.5.5-5.6v-.3l-.2-.2c-1.1-1-3.9-2-8.6-3.2-7-1.7-12.8-2-36.9-2-28.1 0-34.2-.6-38.3-3.7-.7-.5-.9-.8-.9-1 5.4-5.3 11.2-10.3 17.3-15 1.5 0 3.9.8 6.8 2.2 6.9 3.5 15.9 6.1 24.6 7 7.9.8 28.4 5.6 33.8 7.9 1.8.8 3.2 1.2 4.4 1.4l.4.1.2-.4c1.1-2.5 2.4-4.6 3.9-6.5l.3-.3-.3-.3-.1-.1-.1-.2c-2.1-2.5-11.3-6.6-24.2-10.9-16.2-5.2-26.8-11.2-27.9-14.1 6.9-3.8 14.2-7.3 21.8-10.2.8.4 1.5 1 2.2 1.7 1.2 1.3 6.7 5.5 12.1 9.2 5.2 3.6 12.3 9.6 15.4 13.1 3.1 3.5 5.1 5.3 6.7 6.1l.3.1.2-.2c2.1-1.5 4.2-2.6 6.3-3.4l.4-.1-.1-.4c-.2-1.2-1.1-2.9-2.9-6.2l-.3-.5c-2.1-4-7.4-11.3-11.5-15.9-4.6-5.1-7.2-9-7.5-9.9 7.9-1.8 16-3 24.3-3.5.8 3.7 2.5 16.9 3.4 26.7.4 3.7.8 6 1.8 7.4l.2.2h.3c1.2-.1 2.4-.2 3.5-.2 1.4 0 2.6.1 3.9.3l.4.1.2-.3c1-2.2 1.5-6.9 2.6-18.3.3-2.7.6-5.4.9-8 .3-3 .7-5.8.9-7.9 8.6.5 17.1 1.7 25.8 3.6-1.1 2.7-5 6.9-10 12.1-5.1 5.4-12.3 16.9-12.3 20.4v.5l.3.1c2.2 1 4.3 2.2 6.1 3.5l.3.2.3-.2c1.5-.9 3.3-2.8 7-6.8 4-4.3 11-10.4 15.7-13.7 4.6-3.2 9.5-7.1 10.8-8.5.3-.3.7-.8 1.1-1.3.2-.2.4-.4.6-.7 7.4 2.8 14.8 6.2 21.9 10.1-2.2 2.5-6.4 6.1-10.5 8.2-3 1.6-11 4.7-17.8 6.9-11.7 3.7-21.5 8.2-23.6 10.8l-.3.3.3.3c1.6 1.9 2.9 4.2 4 6.6l.2.4 8.5-2.8c10-3.3 15.4-4.5 30.5-6.8 11.7-1.8 17.8-4 25.4-7.5.9-.4 2.2-1.4 3.4-2.5.2-.2.4-.3.6-.5 6.6 4.9 13.3 10.6 19.7 16.9-4 2.8-17.2 4.1-39.3 4-22.7-.1-28.9.2-36.5 1.9l-1.8.4c-3.6.7-6.6 1.4-8.3 2.2l-.3.2.1.4c.3 1.7.7 3.9.7 6.3v1.1h.4c1.6.2 4.1.2 8.3.1 3.3 0 7.3-.1 12.7 0 13 .2 24 1 31.2 2.3 12.3 2.2 31.8 2.8 43.3 1.4l7-.9c.2.2.3.4.5.6.2.3.4.5.6.8l6.1 9.4c4.6 6.9 8.6 13.3 12 18.6 19.8 36.3 30.2 78.2 30.2 121.4 0 29-4.6 57.1-13.7 83.6l-36.1-77.4zM68.1 308.1h.1l4.3 17.3h-4.4v-17.3zm-6.6 0v17.3h-4.4l4.3-17.3h.1z"/></svg>