<svg xmlns="http://www.w3.org/2000/svg" viewBox="0 0 512 512"><path d="M390.7 73.2c-29.3-12.1-60.2-18.4-91.8-18.8-31.7-.3-62.6 5.4-91.8 17-30.3 12-57.5 29.9-80.6 53.1-23 23-40.7 49.8-52.7 79.8-11.6 28.9-17.4 59.5-17.3 90.9.1 31.3 6.1 61.9 17.8 91 12.1 30.1 29.7 57.2 52.5 80.7l2.7 2.7c18.7 18.7 49.1 18.7 67.9 0l274.4-274.4c18.7-18.7 18.7-49.1 0-67.9-23.6-23.4-50.8-41.6-81.1-54.1zM221.2 377.6l-3.9-3.9c-43.5-44.8-43.8-115.8-.2-159.3 43.3-43.3 113.8-43.3 163.2 4.1L221.2 377.6zm193-192.9c-.8-.9-1.6-1.9-2.5-2.7-15.4-15.4-33.4-27.4-53.4-35.7-19.4-8-39.8-12.2-60.7-12.3-21-.2-41.5 3.6-60.8 11.3-20.1 8-38.2 19.9-53.5 35.3-15.2 15.2-27 33.1-35 53-7.7 19.2-11.6 39.4-11.5 60.2.1 42.5 16.5 82.8 46.3 113.5l1.8 1.8c.9.9 1.8 1.7 2.7 2.5l-24.2 24.2-2.2-2.2c-75.2-77.5-75.7-200-.7-275 75.8-75.8 199.9-74.5 277.2 2.8l-23.5 23.3z"/></svg>