<svg xmlns="http://www.w3.org/2000/svg" viewBox="0 0 352 512"><path d="M198.3 73.9c1.9.4 4.6 1.2 5.8 3.1l1.9.4s-.4-2.3-2.7-4.6c-2.3-1.9-6.5-3.8-14.6-3.5h-3.8l-1.9 5 11.1-.8c-.1.1 1.9.1 4.2.4zm-11.9 9.2l2.3-2.7h.4c0 .4-.4.4-.4.8v.8c0 .8.4 1.5.8 2.3.4.4 1.2 1.2 1.9 1.5h3.1c.8-.4 1.2-1.2 1.9-1.5.4-.8.8-1.5.8-2.3 0-.4-.4-1.2-.4-1.2.8 0 3.5.8 3.8 2.7h3.5s-.4-1.9-3.1-3.8c-2.3-1.9-6.5-3.5-14.2-2.3l-3.8 5.8c-.1-.1 3 .3 3.4-.1zm138.1 213.8c1.2-3.5-.4-8.1 1.9-12.3-1.8-.3-8 3.5-10 4.7-.1.1-.2.2-.4.3-.4.3-.2.1.4-.3 5.1-3.7 6.6-7.1 7.3-10.9.8-4.2-.8-8.8.4-13.8-2.3-.4-5 1.5-8.1 4.2-3.5 3.1-3.1.8 0-.8 4.6-2.7 6.5-6.1 7.3-10.4.8-4.2.8-8.8 2.3-13.8-.8 0-4.2.8-5.4 1.2 1.2-3.1-1.5-15-1.2-18.8-2.7 0-5.4 2.3-7.7 5.4-2.3 3.1-2.7 1.2-.4-.4 4.2-5.4 4.6-9.6 3.8-13.8-.4-3.8-1.9-8.1-1.5-13-.4 0-2.3.4-2.7.8-.4-2.7-4.6-11.5-5-15-2.7.4-8.4 6.9-6.9 5 2.7-5 2.7-8.8 1.9-12.3-.8-3.8-2.3-7.7-2.7-12.7-.8 0-3.8 1.9-4.6 2.3 0-3.1-.8-5.4-1.9-8.1-1.5-2.7-2.7-5-3.8-8.8-1.5.4-4.2 1.9-5.8 3.5-.6.9-1.1 1.6-1.4 2.3-.3 1.7-.5 3.4-.5 3.9-.2-1.7 0-2.7.5-3.9.2-1.3.5-2.5.6-3 0-6.5-1.2-10-3.1-13.4-1.9-3.1-4.2-6.1-6.5-11.1-.8.8-3.5 5.8-3.8 7.7-.8-4.6-2.3-7.3-3.8-10s-3.8-5.4-6.1-9.2c-1.5 1.2-2.7 3.8-3.1 7.3-.4 1.7-.8 2.7-1.1 3.7-.1 1-.1 1.9-.1 2.8 0 .1 0 .1.1.2s.2.6 0 0c0 0-.1 0-.1.2-.2-1.4-.1-2.3.1-3.2.1-.7.1-1.4.3-2.2.4-6.5-1.5-10-4.6-12.7-1.5-1.5-3.5-3.1-5.4-4.6h1.5s-1.9-1.2-4.6-2.7c-.4-.4-1.9-1.5-2.3-1.2-5.4-3.5-11.9-7.3-12.7-7.7-.4 0 0-.4.4-.4.8.4-1.2.4.4.4 1.5.4 5.4.8 6.9.4 1.2-.4 3.5-.8 5.4-.8 2.3-.4 5 0 8.1 1.9-1.9-2.7-3.5-4.2-5.8-5-1.9-.8-3.8-1.2-6.5-1.5-3.1.4-6.1-1.2-8.8-3.1l26.9-5c-.4-.4-26.9-5-26.9-5s.8-.4 1.5-.8c1.2-.8 2.3-1.2 3.8-1.2 1.2 0 2.7 0 3.8-.4 1.5-.4 3.1-1.2 4.2-2.3.4-.8 1.5-1.9 3.5-3.1 1.9-1.2 4.6-1.9 8.4-1.5-3.1-1.9-5.4-2.3-7.3-2.3-2.3 0-4.2 1.2-6.9 1.9-1.9 1.2-3.5 1.2-5.4 1.2-1.9-.4-4.2-.8-6.9-.4 0 0 22.3-13.8 22.3-14.2l-27.2 6.1c2.3-3.1 4.6-4.2 6.9-5.4 1.9-1.2 4.2-2.3 5.4-6.1.4-.8 1.2-2.3 2.7-3.5 1.2-1.2 3.1-2.7 5.4-3.8-2.3-.4-4.6 0-7.3 1.2s-5 3.5-7.7 6.1c-.8.4-2.7 1.2-5 1.9-1.9.4-3.8 1.2-5.4 1.5l16.1-21.9L208 51.8c.4-2.7 1.9-4.2 3.5-5.4 1.2-1.5 2.7-3.1 3.1-6.1 0-1.2 0-3.1.4-5 .8-2.3 1.9-5 4.2-7.3-2.7.8-5 2.3-6.5 4.2-1.9 1.9-3.1 4.6-4.2 8.1-.8 1.2-1.9 2.3-3.8 3.5-1.5 1.5-3.5 2.7-4.6 4.2 0 .4 6.5-26.5 6.5-26.5l-16.5 23.4s0-.8.4-1.9c.4-.8.4-2.3.8-3.5.8-2.3 1.2-3.8 1.5-5v-3.8c-.8-1.5-1.5-3.5-1.9-5.8 0-2.3.4-4.6 1.9-7.7-4.2 2.7-5.4 5.8-5.8 8.4-.4 3.1 0 6.1-1.2 8.4-.4 1.2-.8 3.1-1.5 4.6-.8 1.9-1.5 3.5-1.9 4.6L178.3 16l-5.4 27.6c-1.5-2.3-1.9-4.2-1.9-6.1 0-1.9 0-3.8-.8-5.8-1.2-2.3-2.7-3.5-4.2-5-1.2-1.5-2.3-4.2-2.3-9.2-.8 1.5-1.9 3.5-1.9 5.8s.4 5.4 2.7 10.7c.4.4.4 2.3 0 4.6v6.5l-14.6-23.4 6.1 26.9c-1.9 0-3.1-1.9-4.2-4.2-1.2-1.9-2.3-4.2-3.5-5.4-1.5-1.5-3.8-1.9-6.1-3.1-1.9-1.5-3.8-3.5-5.4-7.7-.4 3.1-.4 5.4.8 7.3 1.2 2.3 3.1 4.6 5.8 6.9.8 1.2 1.9 3.5 2.7 5.8 1.2 2.3 1.9 4.6 2.3 5.8l-23-16.5s16.1 22.6 16.5 22.6c-2.7.4-4.2-1.5-6.5-3.1-2.3-1.9-5-3.8-9.6-3.5-3.1 0-5.8-1.5-7.3-2.7s-2.3-2.7-1.9-1.9c1.5 5.4 4.2 7.3 6.9 8.4 2.7 1.2 5.4 1.5 6.5 3.8.8.4 1.9 1.5 3.5 2.7 1.2 1.5 2.3 2.7 2.7 3.5l-26.5-6.1 23.8 14.2c-1.9 1.2-4.6 0-7.3-.8-2.7-.4-5.4-1.2-7.7 0-4.2 1.9-7.3 1.9-9.6 1.5-1.9-.4-3.1-1.5-3.5-1.5 2.3 3.5 4.6 4.6 6.5 5 2.3.4 4.2.4 6.9.4 1.9 0 3.8.4 6.1 1.2 1.9.8 4.2 1.9 6.5 2.7l-27.6 5.4 27.6 5c-1.2.8-1.5 1.5-3.1 1.5-1.2 0-2.7 0-4.2.4-1.2 0-2.7.8-3.8 1.9-.8.8-1.9 1.9-3.8 2.7-1.9 1.2-5 1.5-8.4 1.2 3.1 1.9 5 2.7 7.3 2.7s4.2-.8 6.9-1.5c1.9-1.2 3.5-1.2 5.4-.8 1.9 0 3.1.4 6.1.8-2.7.4-18.4 9.6-18.4 9.6 2.3 0-1.9 2.3-2.7 3.5-.4-1.2-.4-1.9-.8-2.7-.4-.8-.8-1.5-1.5-1.9-2.3 3.8-5 5.4-7.3 7.7s-4.6 4.6-5.4 9.2c-.4-1.2-.8-2.3-1.2-3.5-.4-.8-.8-1.5-1.5-1.9-2.3 3.8-4.6 5.8-6.5 8.4-1.9 2.3-3.5 4.6-4.2 8.8-.4-1.2-2.3-4.2-3.1-4.6-1.9 5-4.6 8.1-6.9 11.1-1.9 3.5-3.1 7.3-1.9 13.8.4 1.9.8 6.5.8 7.7-.4-2.7-1.2-5.4-2.3-7.3-1.2-2.3-2.7-3.8-4.6-4.2-1.5 3.1-3.1 5.4-4.6 8.1-1.2 2.7-1.9 5.4-2.3 8.4-.8-.8-3.1-1.9-3.8-1.9-.4 5-2.7 8.4-3.8 11.9-1.2 3.5-1.2 7.3 2.7 13 1.9 1.9-5-5-7.3-5-.4 3.5-4.2 13.4-3.8 16.5-.8-.4-3.1-1.2-3.5-1.2.4 5-.4 9.2-1.2 13.4-1.2 6.9 4.2 12.3 1.9 9.6-1.9-2.7-3.1-3.5-5.4-3.5.4 5.8-.4 8.1-1.2 10.4-.8 2.3-.8 6.1.8 10-.8-.8-5.4-1.5-6.1-1.5 1.5 5 1.2 8.1 1.5 11.9.8 3.8 2.7 7.3 7.3 10.4 3.1 1.5 3.5 3.8 0 1.2-3.1-2.7-6.5-4.6-9.2-4.2 1.5 4.2 1.5 8.4 2.3 12.3.4 3.5 1.2 6.9 3.8 9.6-1.5-1.2-7.3-2.3-8.8-2.3 2.3 5 3.1 8.8 4.2 12.3.8 3.8 2.7 6.9 7.3 11.1-1.5-.8-6.9-1.2-8.1-.8 1.5 3.5 3.1 14.2 4.2 16.5-.8 0-3.1.8-3.8 1.2 2.7 3.8 7.3 16.5 11.1 19.2-.8 0-3.8.4-4.6.8 1.9 3.1 5.4 13 6.9 15.3-.4 0-2.3 1.2-2.7 1.2 3.1 3.1 4.6 6.1 6.1 8.8 1.5 3.1 3.5 5.4 6.9 7.3-1.2 0-4.2.8-4.6 1.2 2.3 2.7 8.8 11.5 11.1 13.4-1.2 0-4.6 1.5-5 1.9 3.8 2.7 5.8 5.4 7.7 7.7 1.9 2.3 4.2 4.6 8.1 5.8-1.2 0-4.6 1.2-5 1.5 4.6 3.5 5.4 5.8 6.1 8.1.4 1.9 1.2 3.1 5.4 5-.4 0-1.5.8-1.5 1.2 4.6 2.7 7.3 6.9 11.5 10.4s9.6 6.5 20 6.5c5 5 14.2 11.1 24.6 15.7 10 4.6 20.7 8.4 30.3 9.6-4.6-1.5-7.7-4.6-9.2-7.3-22.6-5.8-36.5-17.3-38.4-20.7-.8-1.5-2.7-10.4-3.1-13v-.4c6.5 5.8 13.4 10.7 20.7 14.6 6.9 3.8 13.8 6.5 21.1 8.1-3.1 4.2-.4 10.4 0 10.7 1.5 2.7 4.6 5.8 9.2 7.7h1.9c-.4 0-.8.4-1.2.4-3.8.8-13.8 3.1-19.2 3.8h-.8c-6.9 1.2-11.9 1.5-11.9 1.5-.8 1.5.8 3.1 2.7 4.6 1.5 1.2 3.5 1.9 3.8 2.3h.8c6.1-1.5 23.4-6.1 29.2-7.3-2.7 5.4-7.3 8.1-13 10-5.4 1.5-11.9 2.3-17.6 4.2.4 0 1.9 1.5 2.7 3.1 1.2 1.2 2.3 2.7 2.3 2.3 12.7-3.1 20-7.3 23.4-10.7 4.2-3.5 4.6-5.8 4.6-5.8l.8 3.5s-.8 3.5-4.2 7.3c-3.5 3.8-9.6 7.7-20.3 9.2l3.5 1.5 3.5 1.5c5 0 8.8-1.2 11.9-3.8 3.5-2.7 6.1-6.5 8.8-12.3h.4c.4.4 1.9 1.2 3.5 1.5h.4c.8 0 1.5 0 2.3-.4 1.2-.4 2.3-.8 3.1-1.5 2.3 5.4 5 9.2 8.4 12.3 3.1 2.7 6.9 4.2 11.5 4.6 1.2-.4 2.7-1.2 3.8-1.9 1.2-.4 1.5-1.2 1.5-1.2-6.9-.8-13-5-16.9-9.2-4.2-3.8-6.5-8.1-6.5-8.1.4-.4 1.2-3.1 1.2-3.1.4 1.9 4.2 5.8 9.2 9.6 5 3.8 11.1 6.9 16.5 7.7 0 0 .8-1.2 1.5-2.7.8-1.2 1.9-2.7 1.9-3.1-4.6.8-11.9-2.7-17.6-6.5-5.1-3.3-9.2-7-10.2-7.9-.2 0-.3-.1-.5-.1h.4l.1.1c6.8 1.6 22.3 5.3 28.3 6.8.4 0 .8 0 1.2.4 0-.4 1.9-1.5 3.8-2.7 1.5-1.2 3.1-2.7 2.3-4.6 0 0-5-.4-11.9-1.2 0 0-.4-.4-.8-.4-5-.8-13-2.3-17.6-3.1 6.1-1.5 16.5-5 26.5-9.2 11.5-5.4 23-11.5 29.2-16.5 6.5.8 11.1-1.5 15.3-4.6 4.2-3.1 7.7-6.9 12.7-9.6-.4-.4-2.3-1.2-2.7-1.5 2.7-1.5 4.6-3.5 6.9-5.8s4.2-4.6 7.3-6.9c-.4-.4-3.5-1.2-4.6-1.5 4.6-1.5 5.4-3.1 5.8-5 .8-2.3 1.5-4.6 5.8-7.7 0-.4-.4-.4-.8-.8 0 0-.4-.4-.8-.4 3.1-1.9 4.2-4.2 5.4-6.5 1.5-2.7 2.7-5.4 5.4-8.1-.8-.4-4.2-1.2-5-1.2 4.6-1.9 6.9-4.2 8.8-6.9 1.5-3.1 2.7-6.1 6.1-9.6-.4 0-3.1-.4-4.2-.4 2.7-2.3 3.5-4.6 4.2-7.3 1.2-3.1 1.5-6.9 3.8-10.4-.8-.4-4.6.4-5.8.4 4.2-1.9 6.1-5 7.7-8.4 1.2-3.5 2.3-7.3 4.6-11.1-.4-.4-3.1-.8-3.8-.8 3.5-3.5 3.1-4.6 2.3-6.9-.8-1.9-1.5-5 1.2-11.9-.8-.4-4.6-.4-5.4.4 3.2-3.2 4.3-6.7 5.5-10.1zm-8.5-23.4c1.9-2.7 3.8-5 5.4-5-1.2 3.5-.8 6.1-1.2 8.4 0 2.3-.8 4.6-3.8 8.1-1.9 1.2-2.7 1.9-3.5 2.7-.4.8-.8 1.2-1.2 1.9.4-1.2.4-2.3 1.2-3.5.4-1.2.8-2.3 1.5-3.5l-2.3 2.3c-.8 1.2-1.2 1.9-1.9 3.1-.4-.4-1.2-.4-1.9-.4-.8-.4-1.9-1.2-3.1-2.7-1.5-1.9-1.9-3.8-2.3-5.4 0-1.9 0-3.8-.4-6.5 1.5 1.9 3.5 3.5 5.4 5 1.5 1.5 3.1 2.7 3.5 4.2.8-2.2 2.3-5.7 4.6-8.7zm4.3-24.2c-1.2 3.5-.8 4.6-1.2 6.9 0 2.3-.8 4.6-3.8 7.7-1.9.8-3.1 1.5-3.5 2.3s-.8 1.5-1.2 1.9c.4-1.2.4-2.3.8-3.5s1.2-2.3 1.5-3.1c-.8.8-1.5 1.5-1.9 2.3-.8.8-1.5 1.5-1.9 2.7-.4-.4-1.2-.4-1.9-.8-.8 0-1.9-.8-3.5-2.3-1.5-2.3-1.9-3.8-2.3-5.8 0-1.9 0-3.5-.4-6.1 1.5 1.9 3.8 3.5 5.4 5 1.9 1.5 3.5 3.1 3.8 4.6.4-2.7 2.3-5.8 4.2-8.4 2-2.6 4.7-3 5.9-3.4zm-8.5-13.1c1.5-2.7 3.5-5 4.6-5.4-.4 3.5.4 5.8.8 8.1s0 4.6-2.3 8.1c-1.9 1.2-2.7 2.3-3.1 3.1s-.4 1.2-.8 1.9c0-1.2 0-2.3.4-3.5 0-1.2.4-2.3.8-3.5-.8.8-1.2 1.5-1.9 2.7-.3.6 1.4-3.4 1.9-4.2-.9-.1-4.2 6.9-4.9 6.5-1.2 0-2.3-.4-3.8-1.9-2.3-1.9-2.7-3.5-3.5-5-.4-1.9-.8-3.8-1.5-6.1 1.9 1.5 4.2 3.1 6.5 4.2 1.9 1.2 3.8 2.7 4.2 3.8.3-2.2 1.5-5.7 2.6-8.8zm-1.1-25.3c0 3.8.8 6.1.8 8.4.4 2.3 0 4.6-2.3 7.7-1.5 1.2-2.3 2.3-2.7 3.1-.4.4-.4 1.2-.8 1.9v-3.5c0-1.2.4-2.3.8-3.5-.4.8-1.2 1.5-1.5 2.3-.4 1.2-.8 1.9-1.2 3.1-.8-.4-1.2-.4-2.3-.4-.8-.4-1.9-.8-3.8-2.3-1.9-1.9-2.7-3.5-3.5-5.4-.4-1.5-.4-3.5-1.5-5.8 1.9 1.5 4.2 3.1 6.5 4.2 1.9 1.5 3.8 2.7 4.6 4.2 0-2.7 1.2-5.8 2.7-8.8 1.5-2.5 3-4.8 4.2-5.2zm-80.2 129.3c-.4-1.5-.4-1.5-.8-1.2 0 .4-.4 1.9-.8 2.7-1.2 3.1-2.3 5-3.5 6.1-1.2 1.2-2.3 1.9-3.8 2.7-3.8-3.8-6.1-5.8-8.4-7.7-2.7-1.5-5.4-3.1-10.4-6.1-3.8-1.9-5.8-3.5-7.3-5-1.5-1.2-2.7-2.7-4.6-3.8-3.5 1.5-8.1 4.2-12.3 5.8-4.2 1.2-8.4 1.9-11.1 0-2.3-1.2-1.2-2.3 1.5-3.8 2.3-1.9 5.8-3.8 7.7-6.9 1.9-2.3 3.5-3.8 5.8-4.6 2.3-.8 4.6-.8 7.3-.4 5.4 1.2 9.6 2.7 14.2 5 5 1.9 10.4 4.6 18.4 8.1 9.6.8 18 2.7 26.9 5 8.4 1.9 17.3 4.6 27.2 6.9 1.5.4 3.5.8 5.4.8 1.9.4 3.8.4 5 .8-1.2 3.8-2.7 7.3-4.2 10.7-1.5 3.8-3.5 7.7-6.1 13 0 0-5.4.8-14.2-.8-8.8-1.2-20.7-4.6-33.8-13.4 1.2-1.2 1.9-3.5 2.3-6.1.4-2.8.4-5.5-.4-7.8zm-39.9 6.5c2.7 3.5 5.4 5.4 8.1 7.3 2.3 2.3 4.6 4.6 6.5 8.4-.4 1.2-1.5 1.9-2.3 2.3-1.2 0-2.3 0-3.5-.8-4.6-5-8.8-7.7-11.5-10s-3.8-3.8-2.3-6.1c-.8 0-1.5.4-2.3 1.2-.4 1.2-.8 1.9-.4 2.7.8 3.5 3.1 6.1 5.4 8.4 2.7 2.3 5 4.2 6.1 7.3-.4 2.3-3.1 2.7-6.1.8-3.1-2.3-6.5-6.1-8.8-12.3v-.8c-1.2 1.9-1.9 3.1-1.5 4.6 0 1.5 1.2 3.8 4.2 7.7.8 1.5 1.5 3.1 1.5 4.2-.4.8-1.2 1.5-3.8 1.2.4.4 0 0-.8 0-.4 0-.8-.4 0 0h.8v-.4c-.4 0-.8-.4-.8-.4.8-5.8-1.2-8.1-3.5-9.2-2.3-.8-5-.4-5.4-.4.8-2.3-.4-4.2-2.3-5.8-2.3-1.2-5.4-1.5-8.4-.4.4-1.5-1.2-3.5-3.8-4.6-2.7-1.2-6.9-1.5-11.5 0-.8-1.5-3.1-3.1-6.5-3.1-3.1 0-7.3 1.5-11.1 6.5-6.9.8-16.5 3.8-25.7 6.5-9.2 2.3-18.4 4.2-25.3.8-.4.4-2.7-5.4-5-11.1-1.9-5.8-4.2-11.9-4.2-12.3 8.1-.8 21.5-1.5 34.1-3.1 13-1.5 25.7-3.8 32.2-6.5 5-3.1 12.7-5.8 19.2-6.9 6.5-1.5 12.7-1.9 15-.4-.4 1.5-2.3 4.2-3.8 6.9-1.5 2.3-2.7 5-.4 6.5 3.5 3.5 8.1 4.2 13 3.8 4.6-.4 9.6-2.3 13.4-4.6 4.2 4.2 9.6 6.5 14.2 9.2 5 2.7 9.6 5.8 12.3 11.1l-.8 1.9-.8 2.2c-1.5.8-2.3 1.2-3.1.8-.8-.4-1.5-1.2-3.1-3.5-3.8-5.4-7.7-7.3-10.7-8.8-3.1-1.5-5.4-3.1-5.8-6.5-1.5.8-1.5 1.5-1.5 2.7 0 1.1.8 2.3.8 3zm-38.9 21.7c-.4.1-.1-.3.5-.9.8-.8 1.9-1.5 2.7-1.9l.4-.8.8-.8c1.2-1.2 2.7-2.3 4.2-3.1 1.5-.4 2.7 0 3.8 2.3.8 1.5-1.5 3.5-3.8 5.4-2.7 1.9-5.4 3.5-6.1 3.5-.8.4-1.2.4-1.5.4-.8 0-.8-.4-1.5-1.2-.4-.8-.4-1.5-.4-1.9.2-.3.4-.8.9-1zm-2.9-5.2c-1.9 1.9-3.8 3.8-4.6 3.8-1.2 0-1.9.4-2.3.4-.8-.4-1.5-.4-1.9-1.2-.4-.8.4-2.3 1.2-3.5s1.9-2.3 2.3-3.1c.4-.4 1.2-.8 1.5-1.2.4 0 .8-.4.8-.4l.8-.8 1.2-.8h3.1c.4.4.4.8.8 1.5.1 1.1-1.4 3.4-2.9 5.3zm18.8 5.4s.8-.8 2.3-1.2c1.2-.4 2.3 0 3.1 2.7.4 1.2-.4 2.3-1.9 3.5s-3.5 1.9-5.4 2.7c-1.2-.8-2.7-.8-3.1-1.9-.4-.8.7-2.3 5-5.8zm-30.4-11.1c-1.2 1.5-2.3 2.7-3.1 3.1s-1.5-.4-2.3-1.2c-.8-.4-1.2-1.5-.4-1.5l.8-1.5 1.2-1.5c1.2-.4 2.3-1.2 3.1-1.2.8-.4 1.5-.4 1.9.4.4.3-.4 2.2-1.2 3.4zm12.3-246.7c-1.2.8-2.3 1.2-3.5 1.5.8-.4 1.2-.8 1.9-1.5.4-.8 1.2-1.5 1.9-3.8 2.3-3.5 4.2-4.6 6.5-5.4s4.6-1.2 8.1-3.1c0 1.5-1.5 3.8-3.8 6.5-2.3 2.3-5 5-7.3 6.1 1.5 0 3.1 1.2 5 2.3 1.9 1.2 3.8 2.7 5.8 3.8-2.3 0-4.2.8-6.1 1.2-1.5.4-3.5.4-5.8-.8-1.9-.8-2.7-1.9-3.1-2.3-.4-.8-.4-1.5-1.2-1.9 1.2-.8 1.9-1.5 2.7-2.3.4-.8 1.2-1.9 1.9-2.7-1.1.8-1.8 1.6-3 2.4zm61.8 5c-1.2-.4-1.9-.8-3.1-1.2 1.2-.4 2.3-.8 3.8-1.2 1.5-.8 3.1-1.2 5-1.9 2.7.4 3.5 1.5 3.8 3.1.8 1.5 1.2 2.7 2.7 3.5-1.9-.4-3.1 0-4.2.8-1.5.4-3.1 1.2-6.1 1.9-2.7.4-6.1-.8-8.4-2.3-2.3-1.2-3.8-3.1-3.1-3.8 0 0 .4.4.8.4h.8c1.2.8 3.5 1.2 5.8 1.5 2.3 0 4.2 0 5.8-.4-1.3-.1-2.4-.1-3.6-.4zm-.8-6.6c-5.4 1.2-10.7 1.5-12.3-1.2 1.2.4 2.3.4 3.5 0 .8 0 1.9-.4 3.1-1.2-.8.4-1.9.4-2.7.4s-1.9 0-2.7-.4c1.5-.8 3.1-2.3 4.6-3.1 1.5-1.2 3.1-3.8 5.8-3.5 3.1 0 6.1.4 7.3 1.2 1.2.8 3.8 1.5 5.8.8.3 1.3-7.4 5.5-12.4 7zm-16.1-4.6c-2.3 1.5-5 2.7-6.9 3.1 1.2.4 2.3 1.2 3.5 2.7 1.9 1.9 3.8 4.6 6.1 6.9-2.7-.8-4.2-.8-6.1-1.2-1.5 0-3.5-.4-5.4-2.3-2.7-1.9-2.7-3.5-3.1-4.2 0-.5-.1-.9-.3-1.2-.6.3-1.3.5-2 .5l-.4-1.9h.9c.6-.4 1.1-.5 1.4-.8.8-.8 1.5-1.5 2.7-3.5 3.1-2.7 5-3.5 7.3-3.5 2.7-.4 5 0 8.4-.8-.3 1.6-3 4.3-6.1 6.2zm1.6 19.2h-34.5c.4 0 .8-.4 1.2-.4 4.9-1.1 17.9-2.7 33.3.4zm-17.7-20.7c-2.3 2.7-5 5-7.3 5.8 1.5.4 3.1 1.5 5 3.1 1.9 1.5 3.8 3.1 5.8 4.6-2.7-.4-4.2 0-6.1.4-1.5 0-3.5 0-5.8-1.5-1.9-1.2-2.7-1.9-3.1-2.7-.4-.8-.4-1.5-.8-1.9.8-.4 1.5-1.2 2.3-1.9s1.5-1.5 1.9-2.7c-.8.8-1.5 1.5-2.7 1.9-1.2.8-2.3 1.2-3.5 1.5.8-.8 1.2-.8 1.9-1.5.4-.4 1.2-1.5 1.9-3.5 2.3-3.5 4.2-4.6 6.5-5.4s4.6-1.2 7.7-2.7c.5 1.1-1.4 3.8-3.7 6.5zm-26.1 23h53.3c9.2 2.7 18.8 6.9 27.6 13.8.8.8 1.2 1.2 1.2 1.9h.8c.4.4.8.4 1.2.8H118.4c9.6-6.9 20.8-12.6 33.8-16.5zm87.5 19.2c6.5 5 12.3 10.7 17.6 16.9h-57.9c-5-3.8-11.5-6.5-21.1-7.7-5.8.8-8.4.8-12.3 2.3-3.5 1.5-6.1 3.1-8.4 5H98.1c5-6.1 10.7-11.5 16.9-16.5h124.7zm-81 73.7c-3.1 0-5.8.8-8.1 1.9-2.3.8-4.6 1.9-7.7 1.9 0 0 .4-3.1 2.3-8.1s5.4-11.9 11.9-19.2c2.3-3.1 6.5-6.1 11.1-8.8 4.2-2.7 8.8-5 11.9-6.5l-.4-.8v-.4c-2.7.4-7.7 1.2-12.3 1.2-5 0-9.6-.8-11.5-3.8 0-3.1 1.9-6.5 5.4-9.2s8.4-4.6 14.6-5c3.5-.4 6.9.4 9.6 1.5 3.1.8 5.8 2.3 8.4 3.8 3.5 2.3 5.8 5.4 7.7 8.4 1.5 3.1 2.7 6.5 3.1 10.4-4.2 1.5-6.5 3.1-8.4 4.2-1.5 1.2-2.3 1.5-2.7 1.9.8 0 1.5 0 2.3.4h3.1c1.5.4 2.7.4 3.8 0 .8 0 1.5 0 2.3-.4v4.6c.4 0 .8.4.8.4s.4.4.4.8c-6.1 2.7-10 4.2-12.7 5.4-3.1 1.5-5 2.3-8.1 2.7-.4 0-1.5.4-2.3.4-1.2.4-1.9.4-1.9.4l.4.4c.4 0 1.9.4 3.5.4 1.5.4 3.5.8 4.6.8 2.3 0 5.4-.8 8.4-1.5 3.1-.8 6.1-1.9 8.8-2.7-.4 1.2-.4 2.7.4 3.8.4 1.2 1.5 1.9 3.8 2.7v.4c-7.7 3.8-12.7 5.8-15.7 6.5-3.5.8-5.4.4-5.8 0l-5.4-1.2-5.4-1.2c1.5.8 3.8 2.3 6.1 3.5 2.3 1.5 5 3.1 7.7 3.5s6.1-.8 10-1.9c3.8-1.2 7.3-2.7 10-3.5l1.2 3.5.8 3.1c-4.2 0-8.8 3.5-14.2 5.8-5 2.7-10.7 4.6-17.3 2.3-3.5-2.7-7.3-5.8-11.1-8.4-4.2-2.5-8.4-4.4-13.4-4.4zm12.3 17.6h-11.1c-3.5 0-6.1 0-6.1-.4-1.5-.4-4.6-1.5-6.9-3.1-2.7-1.5-4.2-3.1-3.8-3.5s1.2 0 2.7-.4c1.9-.4 4.2-1.2 8.1-2.7 4.6-1.9 8.8 0 11.9 2.7 2.9 2.8 4.8 6.3 5.2 7.4zm44.1-6.9c1.2-.4.8.4.8.4 0 1.2-.8 2.7-1.5 4.2-1.2 1.2-2.3 2.3-3.5 2.3h-6.5c-2.7.4-6.1.4-8.4.4 1.9 0 3.1-.4 4.2-.8 1.2-.4 2.3-.8 3.5-1.5 6.8-3.4 9.9-4.6 11.4-5zm-30.7 12.7s11.9 1.5 21.5.8c5.8-.4 9.6 0 12.3-1.9H293c1.5 6.1 2.3 11.5 3.1 16.1H184.4v-15zm36.1-3.9c.4-.4.8-1.5 1.2-2.3 1.9-5.8 5-10 3.1-14.6H288c1.9 6.1 3.5 11.5 4.6 16.9h-72.1zm2.3-19.5c-1.2-1.5-4.6-5.4-8.1-15.3 0-.4-.4-.8-.4-.8h67.1c2.3 5.4 4.2 10.7 5.8 16.1h-64.4zm-9.2-18.8c-.8-4.6-1.2-10.4-2.3-16.5h61c3.1 5.4 5.8 10.7 8.1 16.5h-66.8zm-3.1-19.2c-1.2-5.8-3.5-11.5-8.1-16.5h56.8c4.2 5.4 8.1 10.7 11.5 16.5h-60.2zm-55.6-16.5c-4.2 4.6-5 9.6-3.8 13 .4 1.5 1.2 2.7 2.3 3.5H84.7c3.5-5.8 7.3-11.1 11.5-16.5h58.7zm2.3 19.2c.8.4 1.2.4 1.2.4-6.1 6.1-10.4 11.9-13.4 16.1H75.1c2.3-5.8 5-11.1 8.1-16.5h74zm-13.8 19.2c-1.8 2.2-2.6 4-2.7 4.5-.2 0-3.5 4.5-4.2 11.6H68.2c1.5-5.4 3.5-10.7 5.8-16.1h69.4zm-7.3 18.8c0 3.5.4 6.9 1.9 11.1.8 2.7 3.1 4.6 5.4 5.8H62.8c1.2-5.4 2.7-10.7 4.6-16.9h68.7zm14.2 19.5c2.7.8 5 .8 6.1.8 9.6 0 15.7.4 15.7.4v15H59.7c.8-4.6 1.5-10 2.7-16.1h87.9v-.1zm21.9 18.8v15.3l-114-.4s0-5.8 1.2-15h112.8v.1zm-.4 20.7s.4 35.3.4 35.7c-2.7-.4-7.3-.8-11.1-.8s-7.7 0-11.5.4c-10.7 1.9-14.2 5.8-23.8 8.8-10 3.1-26.1 5.8-62.2 6.5-3.1-11.1-4.6-23-5.4-32.2-.8-9.6-.4-18-.4-18-.4 0 114-.4 114-.4zm84.4 50.3c-10.4-3.1-20.3-6.1-29.5-5.8-5.8-1.2-12.3-5-19.6-8.1-6.9-3.5-15-6.1-23-5.8l.4-30.3h112.8c0 1.9-.8 12.3-1.9 23-1.2 10.4-3.5 23-6.5 33-11.2.2-22.3-2.9-32.7-6zm-71.8-55.6V260h111.7c1.2 9.2 1.5 15 1.5 15l-113.2.4zm115.1-64.9c-.4-2.7.4-6.1 1.2-8.8.8-3.1 2.3-5.4 3.5-5.8.4 3.5 1.5 5.8 2.3 7.7.8 2.3.8 4.6-.8 8.1-1.5 1.5-2.3 2.3-2.3 3.1-.4.8-.4 1.5-.4 2.3-.4-1.2-.4-2.3-.8-3.5 0-1.2 0-2.3.4-3.5-.4.8-.8 1.9-1.2 2.7-.4.8-.8 1.9-.8 2.7-.4 0-1.2.4-2.3 0-.8 0-1.9-.4-3.8-1.5-2.7-1.5-3.8-3.1-4.6-4.6-.8-1.9-1.5-3.5-3.1-5.8 2.3 1.5 5 2.3 7.7 3.5 2.4 1.1 4.3 1.9 5 3.4zm-5.3-34.5c.4 3.5 1.5 5.8 2.3 8.1s.8 4.6-.8 8.1c-1.5 1.2-2.3 1.9-2.3 2.7-.4.8-.4 1.5-.4 2.3-.4-1.2-.8-2.3-.8-3.5s0-2.3.4-3.5c-.4.8-.8 1.5-1.2 2.7-.4.8-.8 1.9-.8 2.7h-2.3c-.8-.4-2.3-.8-3.8-1.9-2.7-1.5-3.8-3.1-4.6-5-.8-1.5-1.2-3.5-2.7-5.8 2.3 1.5 5 2.7 7.3 3.8 2.3 1.2 4.2 2.3 5.4 3.5-.8-2.3 0-5.8.8-8.8 1.2-2.7 2.3-5 3.5-5.4zm-11.1.4c-.8-2.7.8-4.6 1.2-7.7.4-2.7 2.7 2.3 3.8 1.9 1.2 3.5-.4-3.8.8-1.5.8 2.3 1.5 4.2.4 8.1-1.2 1.5-1.5 2.3-1.5 3.1-.4.8 0 1.5 0 2.3-.8-1.2-1.2-2.3-1.2-3.5-.4-1.2-.4-2.3-.4-3.5-.4 1.2-.8 1.9-.8 2.7-.4 1.2-.4 1.9 0 3.1h-2.3c-1.2 0-2.3 0-4.6-1.2-2.7-1.5-4.2-2.7-5.4-4.2-.8-1.5-1.9-3.5-3.8-5.4 2.7 1.2 5.4 1.9 8.1 2.7 2.2.8 4.5 1.9 5.7 3.1zM271.9 158c-1.2-2.3-1.5-5.8-1.5-9.2 0-3.1.4-6.1 1.2-6.9 1.5 3.5 3.1 5 3.8 6.9 1.2 1.5 1.5 3.8 1.5 8.1-.8 2.3-.8 3.5-.8 4.2 0 1.2.4 1.5.4 2.7-.8-1.2-1.2-2.3-1.5-3.8-.8-1.2-.8-2.3-1.2-3.5v3.5c0 1.2.4 2.3.4 3.1-.4.4-.8.8-1.5 1.2-.8 0-1.9.4-3.8 0-2.7-.8-4.2-1.9-5.4-3.5-1.2-1.2-2.3-3.1-4.2-4.6 2.3.4 5 .4 6.9.8 2.3-.2 4.2.2 5.7 1zm-17.2-13.1c2.3-.4 4.2-.4 5.4.4-1.2-1.9-1.9-5.4-2.3-8.4-.4-3.1 0-5.8.8-6.9 1.9 3.1 3.5 4.6 4.6 5.8 1.2 1.5 1.9 3.5 2.3 7.7-.8 2.3-.8 3.5-.4 4.6 0 .8.4 1.2.4 2.3-.8-1.2-1.2-2.3-1.9-3.5-.4-1.2-1.2-2.3-1.2-3.5v3.5c.4 1.2.4 2.3 1.2 3.1-.8.4-1.2.8-1.9 1.2s-1.9.8-3.8.8c-2.7-.4-4.2-1.5-5.8-2.7-1.2-1.2-2.7-2.3-5-3.8 2.6-.2 5.3-.6 7.6-.6zm-15-13.8c2.3 0 4.6-.4 5.8.4-1.5-1.9-2.7-5.8-3.5-8.8-.8-3.1-.8-6.1 0-7.3 1.9 3.1 3.8 4.2 5.8 6.1 1.5 1.5 2.7 3.8 3.1 7.7-.4 2.3-.4 3.5-.4 4.6.4.8.8 1.2.8 1.9-.8-.8-1.5-1.9-1.9-3.1-.8-.8-1.2-1.9-1.5-3.1 0 1.2 0 1.9.4 3.1 0 1.2.4 2.3.8 3.1-.4.4-.8.8-1.5 1.2-.8.4-1.9.8-4.2.8-2.7 0-4.2-.8-5.8-1.9-1.5-1.2-2.7-2.3-5-3.5 2.1 0 4.8-.8 7.1-1.2zm-8.1-19.6c1.9 1.2 3.5 2.3 4.6 6.5v3.8c-.4-.8-1.2-1.5-1.5-2.3-.8-.8-1.2-1.5-1.2-1.9.4 1.9.4 3.1.8 4.2.4 1.2.8 1.5 1.2 2.7 0 .4-.4.8-.8 1.5-.4.4-1.5 1.2-3.8 1.5-4.2.4-6.1-.4-7.7-1.2-1.5-.8-2.7-1.9-5.4-2.7 2.7-.4 5-1.2 7.3-1.9 2.3-.8 4.6-1.2 6.1-1.2-1.9-1.5-3.8-4.2-5.4-7.3-1.2-2.7-1.9-5.4-1.5-6.1 2.7 2.5 5 3.3 7.3 4.4zm-99.3-13.4c6.5-1.5 8.4-6.1 8.4-6.1l-16.9-3.5 17.3-4.2s-18.4-7.7-19.2-7.7c.8 0 17.6 1.2 20.3.8 0 0-12.7-8.8-16.1-10.7 0 0 15 3.8 19.2 5 0-.4-13-13.8-13.4-14.6 2.3.8 16.1 8.8 17.3 8.4-2.3-3.5-11.5-16.1-11.5-16.1l16.9 11.1c-.4-1.9-6.5-16.9-7.3-18.4 2.3 3.5 10 12.7 13.4 14.6l-3.8-19.6L167.6 54c.4-1.2.4-16.5-.4-20.3.4 2.3 6.1 17.3 7.3 19.2l3.8-19.6s3.1 18.8 3.1 19.6c1.1-2 7.6-18.9 7.6-18.9-.4 3.8-1.2 19.6-.8 20l11.9-17.3-4.6 20.3c.4-.4 14.2-14.6 14.2-14.6-1.2 1.9-7.7 15-8.8 18.4l17.3-11.5-11.5 16.5s0 .4 1.2 0 16.9-7.7 18-8.4C222.8 60.1 214 67 210.1 72l19.6-4.2s-15.7 10-16.1 10.4c.4.4 19.6 0 21.5-.4-2.3.8-18 5.8-18.4 6.5l18.8 4.2S219 91.6 219 92c.4.8 7.7 6.5 8.8 6.9.4 0-8.1-.4-9.6-1.5-1.5-1.2-6.9-1.9-11.9-.4.4 0 0-3.5-.8-3.1-3.5 1.5-15.7.8-18 1.9-.4.4 0-3.1-.4-4.6-4.6 1.5-8.1 1.9-10.7 2.3-3.1.4-5.4 1.2-7.3 3.5-.8-.4 0-4.6-1.2-4.2-4.2 1.5-8.1 2.3-11.5 3.1-3.1.8-5.4 1.5-6.9 3.5-.4-.8-.8-3.8-.8-3.8-1.9 1.9-3.5 2.3-6.9 3.5-3.8.9-10.7-.6-9.5-1zm-2.3 18.8c.4-.8.8-1.5 1.5-3.8 1.2-4.6 3.5-6.1 6.1-7.3 2.3-1.2 5.4-1.5 8.1-3.8.8 1.2-.4 4.2-2.7 7.3-2.3 3.1-5.4 6.1-8.1 7.3 1.5 0 3.5.8 5.4 1.9 1.9 1.2 3.8 2.3 6.1 3.1-2.3.4-4.2 1.2-6.1 1.9-1.5.4-3.5.8-5.8-.4-1.9-.4-2.7-1.2-3.5-1.9-.4-.8-.4-1.2-.8-1.5.8-.8 1.5-1.5 1.9-2.7.8-.8 1.5-1.5 1.9-2.7l-2.7 2.7c-1.2.8-2.3 1.2-3.5 1.9 1-.8 1.4-1.2 2.2-2zm-16.9 10c.4-.8.4-1.9.4-4.2.8-3.8 2.3-5.4 4.2-6.9 1.9-1.2 4.2-2.3 6.9-4.6.4 1.2 0 3.8-1.5 6.9-1.2 2.7-2.7 5.8-4.6 7.3 1.5 0 3.5.4 5.8 1.2 2.3.8 5 1.5 7.3 1.9-2.3.8-3.8 1.9-5.4 2.7-1.9.8-3.5 1.2-6.1.8-2.3-.4-3.5-.8-3.8-1.5-.8-.4-1.2-1.2-1.9-1.5.8-.8 1.2-1.5 1.5-2.7.4-.8.8-1.9.8-2.7-.4.8-1.2 1.9-1.9 2.7-.8.8-1.5 1.9-2.7 2.7.2-1 .6-1.3 1-2.1zm-11.9 5.4c.4-3.8 1.9-5.8 3.5-7.7 1.5-1.5 3.8-3.1 5.8-5.8.8.8.4 3.8-.4 6.9-.8 3.5-1.9 6.9-3.5 8.8 1.5-.8 3.5-.8 5.8-.4s5 .8 7.3 1.2c-2.3 1.2-3.5 2.3-5 3.5-1.5.8-3.1 1.9-5.8 1.9-1.9 0-3.1-.4-3.8-.8-.8-.4-1.2-1.2-1.9-1.2.4-1.2.8-1.9 1.2-3.1 0-1.2 0-1.9.4-3.1-.4 1.2-1.2 2.3-1.5 3.1-.8 1.2-1.5 1.9-1.9 3.1 0-.8.4-1.5.4-2.3.1-.7.1-1.8-.6-4.1zm-13.8 11.5c.4-4.2 1.2-6.1 2.3-7.7 1.2-1.5 2.7-3.1 4.6-6.1.8 1.2.8 3.8.8 6.9-.4 3.5-1.2 6.9-2.7 8.8 1.5-.8 3.5-.8 5.8-.4 2.3 0 4.6.4 7.3.4-2.3 1.2-3.5 2.7-5 3.8-1.2 1.2-2.7 1.9-5.4 2.3-2.3.4-3.5 0-4.2-.8-.8-.4-1.2-.8-1.9-.8l.8-3.1.8-2.7c-.8 1.2-1.2 2.3-1.9 3.1-.4.8-.8 1.5-1.2 1.9.4-.4.4-1.2.4-1.9.2-.7-.1-1.8-.5-3.7zm-10 6.1c1.2-1.9 2.3-3.5 3.8-6.9.8 1.2 1.5 3.8 1.5 7.3 0 3.1-.8 6.9-1.5 9.2 1.2-1.2 3.1-1.5 5.4-1.5 1.9 0 4.6 0 6.9-.4-1.9 1.5-3.1 3.1-4.2 4.6-1.2 1.2-2.7 2.3-5.4 3.1-1.5.4-2.7.4-3.5 0s-1.5-.8-1.9-.8c.4-1.2.4-2.3.4-3.5v-3.5c0 1.5-.4 2.7-.8 3.8-.4 1.2-1.2 2.3-1.9 3.5.4-.8.4-1.5.8-2.3 0-1.2-.4-2.3-1.2-4.2.1-4.6.8-6.5 1.6-8.4zm-13.1 20.3c1.2-2.3 2.7-4.2 3.8-7.7.8.4 1.9 3.1 2.3 6.1.4 2.7 0 6.1-.8 8.4 1.2-1.2 3.5-1.9 5.8-2.7 2.7-.8 5.4-1.5 7.7-2.7-1.5 1.9-2.7 3.5-3.8 5-.8 1.5-2.3 3.1-5 4.2-2.3 1.2-3.5 1.5-4.2 1.5-1.2 0-1.5-.4-2.3-.4v-2.7c-.4-1.2-.4-1.9-.8-2.7 0 .8 0 1.9-.4 3.1-.4 1.2-.8 2.3-1.2 3.5v-1.9c0-.8-.4-1.9-1.9-3.5-.7-3.2-.3-5.5.8-7.5zm-7.6 14.6c.4-2.3 1.9-4.6 1.9-8.1 1.5.4 2.7 2.7 3.5 5.8 1.2 2.7 1.5 6.1 1.2 8.4 1.2-1.2 3.1-2.3 5.4-3.5s4.6-2.3 7.3-3.8c-1.5 2.3-2.3 4.2-3.1 5.8-.8 1.5-1.9 3.1-4.2 5-1.9 1.2-3.1 1.5-4.2 1.5-.8.4-1.5 0-1.9.4-.4-1.2-.4-1.9-.8-3.1-.4-.8-.8-1.5-1.2-2.3 0 .8.4 1.9 0 3.1 0 1.2 0 2.3-.4 3.5 0-.8 0-1.2-.4-1.9 0-.8-.8-1.5-2.3-3.1-1.6-3.5-1.6-5.4-.8-7.7zm-8.5 19.6c.8-2.3 1.9-4.6 2.3-8.1 1.2.4 2.3 2.7 3.1 5.8 1.2 3.1 1.5 6.1 1.2 8.4 1.2-1.2 3.1-1.9 5.4-3.1 2.3-1.2 5-1.9 7.3-3.5-1.5 2.3-2.3 3.8-3.1 5.4-.8 1.9-1.9 3.5-4.2 5-1.9 1.2-3.1 1.5-4.2 1.5h-2.3c0-1.2 0-1.9-.4-2.7-.4-1.2-.8-1.9-1.2-2.7v3.1c0 1.2 0 2.3-.4 3.5-.4-.8 0-1.2-.4-1.9-.4-.8-.8-1.5-2.3-3.1-1.9-3.4-1.5-5.7-.8-7.6zm-5 15c0-2.3.8-4.6.8-8.1 1.2.4 2.7 2.7 4.2 5.4s2.7 6.1 2.7 8.4c.8-1.5 2.3-2.7 4.6-3.8 1.9-1.5 4.2-2.7 6.1-4.6-.8 2.3-1.2 4.2-1.5 6.1-.4 1.5-1.2 3.1-3.5 5-1.5 1.5-2.7 2.3-3.5 2.7s-1.5.8-1.9.8c-.4-.8-.8-1.9-1.5-3.1-.4-1.2-1.2-2.3-1.9-3.1.8 1.2.8 2.3.8 3.1.4 1.2 0 2.3 0 3.8-.4-.8 0-1.5-.4-2.3s-1.2-1.5-2.7-2.7c-2.3-3-2.6-5.3-2.3-7.6zm-4.9 10.7c1.2.4 3.1 2.7 4.6 5.4s2.7 6.1 2.7 8.4c.4-1.2 2.3-2.3 4.2-3.5 2.3-1.5 4.6-2.7 6.5-4.2-1.2 2.3-1.2 4.2-1.9 5.8-.4 1.9-1.2 3.5-3.1 5-1.5 1.5-2.7 1.9-3.8 2.3h-1.9c-.4-.8-.8-1.9-1.2-2.7-.8-.8-1.2-1.9-1.9-2.7.4 1.2.8 2.3 1.2 3.5v3.5c-.4-.8-.4-1.2-.8-1.9s-1.2-1.5-3.1-3.1c-1.9-3.1-2.3-5.4-2.3-7.7.4-2.3 1.1-4.6.8-8.1zm1.1 33c-2.7-3.1-3.5-5-3.8-6.9-.4-1.9-.4-4.2-1.2-7.7 1.2.4 3.5 1.9 5.4 4.2 2.3 2.7 4.2 5.4 4.6 7.7.4-1.2 1.9-2.7 3.8-4.2 1.5-1.5 3.5-3.1 5.4-5-.8 2.3-.4 4.2-.8 6.1 0 1.5-.4 3.1-2.3 5.4-1.2 1.5-2.3 2.3-3.1 2.3-.8.4-1.5.4-1.9.8-.4-1.2-1.2-1.9-1.5-2.7l-2.3-2.3c.8.8 1.2 1.9 1.5 3.1.4 1.2.8 2.3.8 3.5-.4-.4-.4-1.2-1.2-1.9-.3-.9-1.1-1.6-3.4-2.4zm.4 11.1c2.3 2.3 4.2 5.4 4.6 7.7.4-1.2 1.9-2.7 3.5-4.2 1.9-1.5 3.8-3.1 5.4-4.6-.4 2.3-.4 4.2-.4 5.8 0 1.9-.4 3.5-2.3 5.8-1.2 1.5-2.3 1.9-3.1 2.3s-1.5.4-1.9.4c-.4-.8-.8-1.9-1.5-2.7l-2.3-2.3c.8.8 1.2 1.9 1.5 3.1.4 1.2.8 2.3 1.2 3.8-.8-.8-.8-1.5-1.2-2.3-.8-.8-1.5-1.5-3.5-2.7-3.1-3.1-3.8-5-4.2-6.9-.4-2.3-.4-4.2-1.2-7.7 1.2-.1 3.5 1.8 5.4 4.5zm-4.2 25.3c-.4-1.5-.8-3.8-1.9-10 1.2 0 3.5 1.5 5.8 3.5 2.3 2.3 4.2 5 5.4 7.3 0-1.5 1.2-3.1 2.7-4.6 1.2-1.9 3.1-3.8 4.2-5.8 0 2.7.4 4.6.4 6.1.4 1.9.4 3.8-1.2 6.1-.8 1.9-1.9 2.7-2.7 2.7-.8.4-1.5.4-1.9 1.2 0-.8-.4-1.9-.8-2.7-.4-.8-.8-1.5-1.2-2.3.4.8 0 1.9 0 2.7-.4.8-.8 1.9-.8 2.7-.4-.4-.4-.8-.4-1.2-.4-.8-1.2-1.2-2.7-1.9-3-2.2-4.2-2.6-4.9-3.8zm5.7 14.2c1.9 1.9 3.8 4.2 4.6 6.1.4-1.5 1.5-3.5 3.1-5.8 1.5-1.9 3.1-4.2 4.6-6.5-.4 2.7 0 4.2 0 6.1s-.4 3.8-1.5 6.5c-1.2 1.9-1.9 3.1-2.7 3.5-.8.8-1.2.8-1.9 1.2 0-.8-.4-1.5-.8-2.3-.4-.8-.8-1.2-1.5-1.9.8.8.8 1.9.8 3.1.4 1.2 0 2.7.4 3.8-.4-.8-.8-1.2-1.2-1.9-.8-.4-1.5-1.2-3.5-1.5-3.1-1.9-3.8-3.8-4.2-5.8-.4-1.9-.4-3.8-1.5-7.3 1.1-.3 3.4.8 5.3 2.7zm-1.9 20.4c-1.2-1.9-1.9-4.2-3.8-7.3 1.2-.4 4.2.4 6.9 2.3 2.7 1.5 5.4 3.5 6.5 5.8 0-1.5 1.2-3.5 2.3-5.8 1.2-2.3 2.3-5 3.5-7.3 0 2.7.8 4.2 1.2 6.1s.4 3.5-.8 6.5c-.8 2.3-1.5 3.5-2.3 4.2-.8.4-1.5.8-1.5 1.9-.4-1.2-.8-1.9-1.2-2.7-.4-.8-1.2-1.2-1.9-1.5.4.4.8 1.2 1.2 1.9v2.7c-.4-.4-.8-.8-1.2-.8-.8-.4-1.5-.4-2.7-.8-3.5-1.4-5-2.9-6.2-5.2zm3.1 12.6c1.2-.4 4.2.4 6.9 1.9s5.4 3.8 6.5 5.8c0-1.5 1.2-3.5 1.9-5.8 1.2-2.3 2.7-4.6 3.8-6.9 0 2.3.8 4.2 1.2 5.8.4 1.9.4 3.8-.4 6.5-.8 1.5-1.2 2.7-1.9 3.5-.4.8-1.2 1.2-1.5 1.2-.4-.8-.8-1.2-1.2-1.9l-1.9-1.9c.8 1.2 1.2 1.9 1.2 3.1.4 1.2.8 2.7.8 3.8l-1.5-1.5c-.8-.4-1.9-.8-3.8-.8-3.5-1.5-5-3.5-6.1-5.4-1.3-2-2.1-4.3-4-7.4zm10.3 23.1c-1.5-1.5-2.3-3.8-5-6.1 1.2-.8 4.2-.4 7.3.8 2.7 1.2 5.8 2.7 7.7 4.6-.4-1.5 0-3.8.8-6.1s1.9-4.6 2.3-7.3c.8 2.3 1.5 3.8 2.3 5.8.8 1.5 1.2 3.1.8 6.1-.4 1.9-.8 3.1-1.5 3.8-.4.8-1.2 1.2-1.2 1.5-1.2-.8-1.9-1.5-3.1-1.9-1.2-.4-2.3-.8-3.5-1.2 1.2.8 2.3 1.5 3.1 2.3 1.2.8 1.9 1.9 2.7 3.1v-.4h.4v.8c-.8-.4-1.2-.8-1.9-1.2-.8-.4-1.9-.8-4.2-.4-3.9-1.2-5.8-2.3-7-4.2zm7.7 16.5c-1.5-1.5-2.3-3.8-4.6-6.5 1.2-.4 3.8 0 6.9 1.5 3.1 1.2 6.5 3.1 8.1 5-.4-1.5.4-3.5 1.2-5.8.8-2.3 1.9-4.6 2.7-7.3.4 2.7 1.2 4.2 1.9 5.8.8 1.5 1.2 3.5.4 6.1-.4 1.9-.8 3.1-1.5 3.8-.4.8-1.2.8-1.5 1.5-.8-.8-1.5-1.2-2.7-1.5-.8-.4-1.9-.8-2.7-1.2.8.8 1.9 1.2 2.7 2.3.8.8 1.5 1.5 2.3 2.7-.8-.4-1.2-1.2-1.9-1.5-.8 0-1.9-.4-3.8-.4-4-1.1-6-2.6-7.5-4.5zm8.8 14.2c-1.9-1.9-3.1-3.8-5.8-6.1 1.2-.4 3.8 0 6.9.8 3.5.8 6.5 2.3 8.4 3.8-.4-1.2 0-3.5.4-5.4.4-2.3 1.2-5 1.2-7.3 1.2 2.3 2.3 3.5 3.5 5 .8 1.5 1.5 3.1 1.5 5.8 0 1.9-.4 3.1-1.2 3.8-.4.8-.8 1.2-1.2 1.9-.8-.8-1.9-1.2-3.1-1.2-.8-.4-1.9-.4-3.1-.8 1.2.4 2.3 1.2 3.1 1.9 1.2.4 1.9 1.2 3.1 1.9-.8 0-1.5-.4-2.3-.8-.8 0-1.9-.4-4.2 0-3.7-.3-5.6-1.8-7.2-3.3zM82 418.1c-4.2-1.2-5-1.9-5.8-3.5-.4-1.5-.4-3.1-3.5-5.4 1.2-.8 4.2 0 7.3 1.2 3.5 1.2 6.9 2.7 8.4 4.6-.4-1.5 0-3.5.4-5.8.8-1.9 1.5-4.6 1.5-6.9 1.2 2.3 2.3 3.8 3.5 5.4.8 1.5 1.5 3.1 1.2 5.8 0 1.9-.4 3.1-.8 3.8-.8.4-1.2.8-1.5 1.5-.8-.8-1.9-1.2-3.1-1.5-.8-.4-1.9-.4-3.1-.8 1.2.4 2.3 1.2 3.1 1.9 1.2.8 1.9 1.5 3.1 2.3-.8-.4-2.3-1.2-4.2-1.5-1.9-.7-4.2-1.5-6.5-1.1zm24.9 15c.8.8 1.5 1.5 1.9 2.3-.8-.4-1.5-1.2-2.7-1.5-.8-.8-2.3-.8-3.8-.4-4.6-.4-7.3-1.9-9.6-3.8s-4.6-4.2-8.1-6.1c1.2-.8 4.2-.4 7.7 0 3.5.8 7.3 1.9 9.2 3.5-.8-1.2-.8-3.1-.4-5.4 0-2.3.4-4.6 0-6.9 1.5 1.9 3.1 3.1 4.2 4.6 1.2 1.2 2.3 2.7 2.7 5.4 0 1.9.4 3.8.4 5 .4 1.5.4 2.7.8 4.2-.4-.8-1.2-1.5-1.9-1.9-.8-.4-1.9-.8-2.7-1.2.8.3 1.6 1 2.3 2.2zm57.6 26.1l.4.4c-1.2-.8-10.7-5.8-6.5-11.1.4 0 .4-.4.8-.4 3.5-3.1 7.7-1.2 7.7-1.2-6.6 4.2-3.6 11.9-2.4 12.3zm16.5 9.2l-.8 3.8c-.4 1.9-1.5 4.2-3.1 4.2-1.5-.4-2.7-2.3-3.1-4.2-.4-1.9-.4-3.8-.4-3.8s-.4-.8-.4-1.9c.4-1.2 1.2-1.9 3.8-2.3 2.7 0 3.5 1.2 3.8 2.3.6.7.2 1.9.2 1.9zm2.7-11.5c-.8 1.5-1.5 2.7-1.5 3.1-.4 0-.4 0-.4.4.4 0 0 .4 0 .4v-.4c0-.4 0-.8-.8-1.2-.8 0-1.9-.4-3.8-.4-3.8 0-5 .8-5.4 1.2-.4.8 0 .8-.8 0 0-.4-.8-1.2-1.2-2.3-.4-.4-.4-1.2-.4-1.5-.4-.4-.4-1.2-.4-1.9 0-.8 1.2-3.1 2.7-3.8 1.5-1.2 3.8-1.5 5-1.5s2.7.4 4.2 1.2c1.9.8 2.7 1.9 2.7 2.7.8.9.8 2.4.1 4zm4.2 2.3l.4-.4c.8-.4 3.5-3.1 3.1-6.5 0-.8-.4-1.9-1.2-3.1-.4-.8-1.5-1.2-2.3-1.9 0 0-1.2-.4-.4-1.2.8-.4 5.4-.4 7.7 1.5 3.5 3.5.8 6.1-1.5 8.1-1.9 1.5-4.6 2.7-5.4 3.1 0 .4-.4.4-.4.4zm4.2 5.3h-.8c.4-.4 3.5-1.2 6.5-3.5-1.8 2-4.1 3.2-5.7 3.5zm48.4-39.1l-.4.4c-.4 2.7-1.5 10.4-2.3 11.9-2.3 4.6-9.6 8.4-17.3 11.9-6.9 3.1-13.8 5.8-18.8 7.3 0-.4.4-.4.4-.8 0-.8.4-1.2.4-1.9.4-1.5.4-2.3.4-3.5 0-.8-.4-1.5-.4-2.3-.4-.8-.8-1.9-1.2-2.7 6.5-1.9 13-4.2 19.2-7.7 6.9-3.5 13.4-7.7 20-13v.4zm-48.8 15.7c-.8-.4-1.5-.4-2.3-.4-5 0-10 .8-11.5 1.2h-.8c-1.2-.4-6.5-.8-11.5-.8h-2.3c-20.3-3.1-36.5-12.3-49.5-23.4-15.7-13.4-26.5-29.2-32.6-39.1-.8-1.2 6.5-4.2 15.3-7.3 8.4-3.1 30.3-9.2 30.3-9.2 0 1.9 1.9 3.5 3.5 3.8 1.5.8 3.5.4 3.1-.4.8.8.8 1.5.8 2.7.4 1.2.8 2.3 2.7 3.8 1.9 1.2 3.5 1.5 4.6 1.5 1.2 0 1.9-.4 2.3-.8-.8 1.2 1.2 3.1 3.5 4.2 2.7.8 6.1 1.2 8.8-.4-.4 1.2.4 2.3 1.5 2.7 1.2.8 2.7.8 3.1 1.2.8.4 2.7.8 4.2.8 1.9.4 3.8 0 5.4-.8v28.4c-.4 5.4 3.8 6.9 5 7.7 8.4.4 7.7-5 8.1-6.9 0-6.1.4-29.5.4-29.2 3.8-.8 5.4-1.5 6.1-1.9.8-.8 1.2-1.5 2.7-1.9 1.5.4 3.1.4 4.2 0 1.2-.4 2.3-1.5 3.8-3.5 1.9 0 3.8 0 5.4-.8 1.9-.8 3.1-1.9 3.5-3.5 1.9.4 3.8 0 6.1-1.5 1.9-1.5 3.8-3.8 5.4-7.3 3.8 1.2 42.2 19.6 48.7 21.5-3.1 5-12.7 20-28.4 33.8-12.7 11.6-29.2 22-49.6 25.8zm69.5-10.3c-1.9 1.5-4.2 2.7-8.4 3.1-1.9-.8-3.5-.4-5 .4-1.2.8-2.3 1.5-3.1 2.3.4-1.2 1.2-1.9 2.3-3.1.8-1.2 1.5-1.9 2.3-2.3-.8.4-1.9.8-2.7 1.2-.8.4-1.5.8-2.3 1.2v-3.1c0-1.2 0-2.7.4-4.2.4-2.7 1.5-4.2 2.7-5.4 1.5-1.5 3.1-2.7 4.2-4.6 0 2.3 0 4.6.4 6.9 0 2.3 0 4.2-.8 5.4 1.9-1.2 5.8-2.3 9.6-3.1 3.5-.8 6.5-.8 7.7 0-3.5 1.8-5.4 3.7-7.3 5.3zm13.4-12.7c-1.5 1.9-3.8 3.5-8.1 4.2-2.3 0-3.5 0-4.2.4-.8 0-1.5.4-2.3.8 1.2-.8 1.9-1.5 3.1-2.3s1.9-1.5 3.1-1.9c-.8.4-1.9.4-3.1.8s-2.3.8-3.1 1.2l-1.5-1.5c-.4-.8-.8-1.5-.8-3.8-.4-2.7.4-4.2 1.5-5.8.8-1.5 2.3-3.1 3.1-5.4.4 2.7 1.2 5 1.5 7.3.4 2.3.8 4.2.4 5.4 1.9-1.5 5.4-3.1 8.8-4.2 3.1-1.2 6.1-1.5 7.3-1.2-3 2.2-4.2 4.5-5.7 6zm9.6-15c-1.9 1.9-3.8 3.5-7.7 3.8-2.7-.4-3.8 0-4.6 0-.8.4-1.5.8-2.7 1.2 1.2-1.9.8-2.7 0-3.5s-1.5-1.5-1.5-4.6c-.4-3.1.4-4.6 1.5-6.1.8-1.5 2.3-2.7 3.1-5 .4 3.1 1.5 6.1 1.9 8.8 0 1.5 0 3.1-.4 4.2 1.9-1.5 4.6-2.7 7.3-3.8 3.8-1.2 7.7-1.5 8.8-.8-3 2-4.2 4.3-5.7 5.8zm9.6-14.9c-1.2 2.3-2.7 3.8-6.5 5-2.3 0-3.5.4-4.2.4-.8.4-1.2 1.2-1.9 1.2.8-.8 1.5-1.5 2.3-2.7.8-.8 1.9-1.5 2.7-1.9-.8.4-1.9.4-3.1.8-.8.4-1.5 1.2-2.3 1.9-.4-.8-1.2-1.2-1.9-1.5-.4-.8-1.2-1.9-1.5-4.2-.4-2.7 0-4.2.4-6.1.8-1.5 1.9-3.1 2.3-5.8.8 2.7 1.9 5 2.7 7.3s1.5 4.2 1.2 5.8c1.5-1.9 4.6-3.8 7.7-5 2.7-1.5 5.8-2.3 6.9-1.9-2.5 2.5-3.7 4.8-4.8 6.7zm8.4-16.5c-1.2 1.9-2.7 3.5-6.5 4.6-2.3-.4-3.5 0-4.2 0-.8.4-1.2.8-1.9 1.2.8-.8 1.5-1.9 2.3-2.7.8-.8 1.9-1.5 3.1-1.9-1.2.4-2.3.4-3.1.8-1.2.4-1.9 1.2-2.7 1.5l-1.5-1.5c-.8-.8-1.2-1.9-1.5-4.2-.4-2.7 0-4.6.8-6.1s1.5-3.1 2.3-5.8c.4 2.7 1.5 5 2.3 7.7.8 2.3 1.2 4.2 1.2 5.8 1.5-1.9 4.6-3.8 7.3-5 3.1-1.2 5.8-1.9 6.9-1.2-2.5 2.2-3.6 4.5-4.8 6.8zm6.6-16.5c-.8 2.3-2.3 4.2-5.8 5.8-1.9 0-3.1.4-3.8 1.2-.8.4-.8.8-1.5 1.2.4-1.2 1.2-1.9 1.9-3.1l2.3-2.3c-1.2.4-1.9.8-2.7 1.2-.8.8-1.5 1.2-2.3 1.9-.4-.4-1.2-.8-1.9-1.5-.4-.4-1.2-1.5-1.9-3.8-1.2-2.7-.8-4.6-.4-6.5.4-1.5.8-3.5 1.2-6.1.8 2.7 2.3 5 3.5 7.3s1.9 4.6 1.9 6.1c1.2-2.3 3.8-4.6 6.5-6.1 2.7-1.9 5-3.1 6.1-2.7-2 2.8-2.4 5.5-3.1 7.4zm6.1-19.2c-.8 2.3-1.9 4.2-5.4 5.8-2.3.4-3.1.8-3.8 1.2-.8.4-.8.8-1.5 1.5.4-1.2 1.2-2.3 1.5-3.5l2.3-2.3c-.8.4-1.5.8-2.3 1.2-1.2.8-1.9 1.2-2.3 1.9-.4-.4-1.2-.8-1.9-1.2-.4-.8-1.2-1.9-1.9-4.2-1.2-2.7-1.2-4.6-.8-6.5.4-1.5 1.2-3.5 1.2-6.1 1.2 2.7 2.3 5 3.8 7.3 1.2 2.3 1.9 4.6 1.9 6.1 1.2-2.3 3.5-4.6 6.1-6.5 2.3-1.5 5-2.7 6.1-2.3-1.9 3-2.2 5.3-3 7.6zm4.6-25.3c-1.2 3.5-1.2 6.1-1.5 8.4-.4 2.7-1.5 4.6-4.2 6.9-2.3.4-3.1 1.2-3.5 1.5-.8.4-.8 1.2-1.5 1.5.4-1.2.8-2.3 1.2-3.1.8-1.2 1.2-2.3 1.9-3.1-.8.4-1.5 1.2-2.3 1.9-.8.4-1.2 1.2-1.9 2.3-.4-.8-1.2-.8-1.9-1.5-.8-.4-1.5-1.5-2.7-3.5-1.5-2.7-1.5-4.6-1.5-6.5s.4-3.8 0-6.9c1.5 2.7 3.1 5 4.6 7.3 1.5 1.9 2.7 3.8 3.1 5.8.8-2.7 2.7-5.4 5-7.7 1.7-1.8 4.1-3.3 5.2-3.3zm-5-5.8c-2.3.8-3.1 1.5-3.8 2.3-.8.8-.8 1.2-1.5 1.9.4-1.2 1.2-2.3 1.5-3.5.8-1.2 1.2-2.3 2.3-3.5-1.2.8-1.9 1.5-2.7 2.3-.8.8-1.5 1.5-2.3 2.7-.4-.4-1.2-.4-1.9-.8-.8-.4-1.5-1.2-2.3-2.7-1.5-2.3-1.5-4.2-1.2-6.1 0-1.9.4-3.8.4-6.1 1.2 1.9 3.1 3.8 4.6 5.4 1.2 1.9 2.3 3.5 2.7 5 .8-2.7 3.1-5.8 5.4-8.4 2.7-2.7 5-4.6 6.1-4.6-1.5 3.5-1.5 6.1-2.3 8.4s-1.5 4.7-5 7.7zm-162.8 63.5c.1 0 .3-.1.5-.1-.2-.1-.4 0-.5.1zm2.4-289.1c-2.3 1.9-3.1 3.8-3.1 3.8h3.5c.4-.8 1.2-1.5 1.9-1.9.4-.4 1.2-.8 1.9-.8 0 0 0 .4-.4.4 0 .4.4 2.3.8 3.1.8.4 1.2 1.2 1.9 1.2 0 0 2.7.4 3.1 0 .8 0 1.2-.8 1.9-1.2.4-.8.8-1.5.8-2.3 0-.4 0-.8.4-.8l1.9 1.9c.4.4 3.8 0 3.8 0l-3.8-5.8c-7.7-1-12.3.5-14.6 2.4zm158.1 164.2c.1-.2 0-.1 0 0zM187.1 105c-1.2.4-2.3 1.2-3.5 1.2-1.6.6-1.9.7-3 .8-.2.1-.3.2-.5.4 1.1.2 1.7.6 2 1.1.6-.3 1.2-.7 1.8-1.1 1.3-.5 2.5-1.6 3.2-2.4zm-30.7-31.4c2.3-.4 9.6.4 9.6.4l5.8.4-1.2-5h-3.1c-8.8-.4-13.4 1.5-15.7 3.5-2.7 1.9-3.1 4.2-3.1 4.2l1.9-.4c1.2-2 3.9-2.8 5.8-3.1z"/></svg>